<svg id="svg" version="1.1" xmlns="http://www.w3.org/2000/svg" xmlns:xlink="http://www.w3.org/1999/xlink" width="400" height="400" viewBox="0, 0, 400,400"><g id="svgg"><path id="path0" d="M294.922 47.144 C 285.851 50.151,285.518 50.410,250.391 81.938 C 204.788 122.867,210.156 112.477,210.156 159.813 L 210.156 195.124 219.727 195.451 C 243.632 196.269,257.086 216.330,245.543 233.946 C 244.224 235.959,243.838 237.139,244.435 237.338 C 262.526 243.368,265.177 270.122,248.839 281.787 C 246.656 283.346,246.587 283.546,247.771 284.891 C 259.906 298.674,250.071 323.511,231.655 325.587 L 228.296 325.965 230.291 330.323 C 232.960 336.154,233.095 344.013,230.620 349.513 C 229.678 351.609,228.906 353.455,228.906 353.615 C 228.906 354.654,381.268 353.817,384.833 352.758 C 389.270 351.440,393.800 347.275,395.665 342.799 C 397.851 337.552,397.461 123.919,395.257 118.794 C 393.670 115.104,337.528 63.283,324.323 53.319 C 316.091 47.107,303.202 44.400,294.922 47.144 M308.203 86.805 C 312.526 87.992,317.462 93.256,318.640 97.934 C 322.029 111.393,306.356 122.267,295.036 114.311 C 280.594 104.161,291.146 82.119,308.203 86.805 M139.580 145.513 C 138.830 146.062,137.191 150.106,135.865 154.680 C 131.665 169.172,127.222 174.634,112.344 183.600 C 95.870 193.528,92.760 196.289,84.540 208.291 C 75.690 221.212,68.547 226.320,58.161 227.153 L 53.125 227.558 53.125 282.794 L 53.125 338.031 67.517 343.202 C 97.177 353.859,97.499 353.896,159.986 353.902 C 214.919 353.907,213.412 354.028,217.399 349.289 C 223.260 342.323,221.316 332.368,213.305 328.320 C 209.965 326.633,209.017 326.563,189.748 326.563 L 169.670 326.563 167.594 324.095 C 165.254 321.314,165.398 318.706,168.039 316.016 C 169.510 314.517,170.878 314.437,201.527 314.063 C 232.263 313.687,233.565 313.610,235.638 312.061 C 243.570 306.135,243.332 293.895,235.186 288.829 C 232.475 287.143,231.825 287.105,201.563 286.907 C 180.630 286.769,170.154 286.421,168.997 285.826 C 166.655 284.620,165.360 281.269,166.290 278.822 C 167.921 274.531,167.002 274.640,205.002 274.219 L 240.234 273.828 242.791 272.005 C 249.797 267.008,250.329 256.047,243.832 250.579 C 239.672 247.079,237.503 246.884,202.686 246.879 C 166.796 246.875,167.532 246.966,166.057 242.317 C 163.809 235.234,167.523 234.375,200.404 234.375 C 231.198 234.375,230.913 234.417,234.843 229.265 C 240.538 221.799,236.654 210.385,227.560 207.859 C 225.684 207.339,210.473 207.038,185.806 207.036 C 143.943 207.031,145.017 207.111,143.330 203.850 C 141.778 200.848,141.736 201.004,145.673 195.010 C 156.021 179.255,156.239 158.052,146.167 147.070 C 143.692 144.372,141.765 143.916,139.580 145.513 M307.567 174.355 C 309.113 175.808,309.375 176.823,309.375 181.371 C 309.375 186.540,309.435 186.702,311.523 187.149 C 329.001 190.888,344.834 210.057,335.004 215.575 C 331.726 217.415,328.939 215.995,326.341 211.162 C 317.272 194.297,289.359 193.765,282.460 210.326 C 278.050 220.913,284.802 229.712,300.000 233.184 C 320.770 237.929,325.714 239.870,332.001 245.750 C 349.479 262.099,339.639 288.356,314.226 293.186 L 309.375 294.107 309.375 299.397 C 309.375 304.985,307.942 307.698,304.883 307.905 C 299.886 308.243,297.656 305.467,297.656 298.909 L 297.656 293.999 293.382 293.042 C 277.220 289.425,261.073 270.106,268.231 262.948 C 271.608 259.571,278.125 261.724,278.125 266.218 C 278.125 268.410,282.300 274.530,285.419 276.908 C 300.684 288.552,328.906 281.602,328.906 266.200 C 328.906 255.057,322.213 249.690,303.516 245.840 C 298.359 244.778,292.123 243.147,289.657 242.214 C 261.847 231.699,263.514 197.664,292.299 188.251 L 297.489 186.554 297.799 181.073 C 298.242 173.233,302.936 170.004,307.567 174.355 M3.490 206.431 C 3.283 206.976,3.203 239.590,3.314 278.906 L 3.516 350.391 21.875 350.391 L 40.234 350.391 40.234 278.125 L 40.234 205.859 22.051 205.650 C 7.928 205.487,3.784 205.661,3.490 206.431 " stroke="none" fill="#ffffff" fill-rule="evenodd"></path></g></svg>