<svg id="svg" version="1.1" xmlns="http://www.w3.org/2000/svg" xmlns:xlink="http://www.w3.org/1999/xlink" width="400" height="400" viewBox="0, 0, 400,400"><g id="svgg"><path id="path0" d="M15.234 58.142 C 12.293 59.458,8.169 63.763,7.079 66.652 C 5.291 71.395,5.990 288.616,7.805 292.173 C 11.376 299.173,16.109 300.771,33.287 300.777 L 45.870 300.781 46.317 294.727 C 47.232 282.333,52.446 271.648,62.442 261.680 C 94.322 229.892,147.376 247.695,154.495 292.569 L 155.797 300.781 202.508 300.781 L 249.219 300.781 249.219 184.727 C 249.219 58.203,249.511 66.774,245.026 61.838 C 240.315 56.654,249.506 57.028,127.570 57.062 C 37.249 57.087,17.159 57.280,15.234 58.142 M260.938 203.882 L 260.938 300.781 265.569 300.781 L 270.200 300.781 270.708 296.289 C 275.275 255.882,315.485 233.836,351.172 252.172 C 366.691 260.146,379.630 280.349,379.676 296.680 C 379.689 301.483,381.223 302.001,387.289 299.247 C 393.576 296.393,393.744 295.658,393.747 270.898 L 393.750 249.219 385.262 249.219 C 375.235 249.219,372.656 248.020,372.656 243.359 C 372.656 238.699,375.235 237.500,385.262 237.500 L 393.750 237.500 393.750 215.583 L 393.750 193.666 377.297 154.841 C 354.716 101.555,363.691 107.492,305.273 107.202 L 260.938 106.982 260.938 203.882 M75.692 128.711 C 78.403 130.962,78.672 134.681,76.295 137.058 C 74.290 139.062,74.285 139.063,60.192 139.063 L 46.094 139.063 46.094 146.875 L 46.094 154.688 56.535 154.688 C 68.553 154.688,71.094 155.677,71.094 160.358 C 71.094 165.542,69.065 166.406,56.895 166.406 L 46.094 166.406 46.094 178.161 C 46.094 192.930,42.492 197.978,36.183 192.051 L 34.375 190.353 34.375 160.766 L 34.375 131.179 36.293 129.261 L 38.210 127.344 56.128 127.344 C 72.044 127.344,74.230 127.496,75.692 128.711 M122.998 129.986 C 127.358 133.314,128.125 135.902,128.125 147.279 C 128.125 159.484,125.750 164.427,119.080 166.101 C 116.515 166.745,116.466 166.596,122.645 177.074 C 128.520 187.037,129.056 189.143,126.426 191.942 C 122.045 196.605,119.597 194.644,110.635 179.293 L 103.339 166.797 99.716 166.559 L 96.094 166.321 96.094 178.227 C 96.094 189.377,95.986 190.249,94.395 191.942 C 92.143 194.339,88.753 194.293,86.293 191.832 L 84.375 189.915 84.375 161.400 C 84.375 124.152,82.464 127.326,104.751 127.568 L 120.048 127.734 122.998 129.986 M176.226 129.145 C 178.844 131.397,178.961 134.556,176.524 137.150 C 174.748 139.040,174.566 139.063,160.801 139.063 L 146.875 139.063 146.875 146.816 L 146.875 154.569 157.883 154.824 C 169.933 155.102,171.875 155.913,171.875 160.669 C 171.875 165.300,169.095 166.406,157.457 166.406 L 146.875 166.406 146.875 174.219 L 146.875 182.031 159.961 182.043 C 176.418 182.057,180.150 183.698,177.968 189.958 C 176.721 193.537,175.501 193.750,156.301 193.750 C 132.425 193.750,135.156 198.032,135.156 160.604 L 135.156 130.582 137.215 128.963 C 140.566 126.327,173.126 126.479,176.226 129.145 M226.989 129.261 C 228.043 130.316,228.906 132.090,228.906 133.203 C 228.906 138.297,226.563 139.063,210.973 139.063 L 196.875 139.063 196.875 146.875 L 196.875 154.688 207.317 154.688 C 219.335 154.688,221.875 155.677,221.875 160.358 C 221.875 165.542,219.847 166.406,207.676 166.406 L 196.875 166.406 196.875 174.219 L 196.875 182.031 210.607 182.031 L 224.339 182.031 226.623 184.315 C 229.410 187.102,229.517 189.304,226.989 191.832 L 225.071 193.750 206.922 193.750 C 189.363 193.750,188.714 193.695,186.964 192.051 L 185.156 190.353 185.156 160.766 L 185.156 131.179 187.074 129.261 L 188.991 127.344 207.031 127.344 L 225.071 127.344 226.989 129.261 M357.942 134.180 C 359.477 135.842,376.135 173.653,381.181 186.928 C 383.255 192.385,384.554 192.250,332.339 192.010 L 285.809 191.797 283.499 189.211 L 281.189 186.626 281.415 161.213 L 281.641 135.801 283.833 133.916 L 286.025 132.031 320.991 132.031 L 355.958 132.031 357.942 134.180 M96.094 146.875 L 96.094 154.688 106.250 154.688 L 116.406 154.688 116.406 146.875 L 116.406 139.063 106.250 139.063 L 96.094 139.063 96.094 146.875 M92.969 257.822 C 59.078 263.672,45.842 306.049,70.255 330.544 C 92.825 353.191,132.157 343.477,141.598 312.923 C 151.036 282.377,124.553 252.370,92.969 257.822 M315.951 258.189 C 282.243 265.524,270.866 308.538,296.460 331.882 C 320.114 353.455,358.755 342.078,366.805 311.169 C 374.886 280.148,347.268 251.375,315.951 258.189 M109.329 281.226 C 125.564 289.509,125.364 311.612,108.984 319.256 C 95.953 325.337,80.917 316.215,79.871 301.594 C 78.738 285.756,95.495 274.169,109.329 281.226 M333.858 281.114 C 346.445 286.681,350.076 303.211,341.057 313.883 C 333.383 322.962,318.578 323.365,310.436 314.717 C 294.621 297.918,312.821 271.808,333.858 281.114 " stroke="none" fill="#ffffff" fill-rule="evenodd"></path></g></svg>