<svg id="svg" version="1.1" xmlns="http://www.w3.org/2000/svg" xmlns:xlink="http://www.w3.org/1999/xlink" width="400" height="400" viewBox="0, 0, 400,400"><g id="svgg"><path id="path0" d="M193.359 7.776 C 187.037 9.135,183.060 11.422,169.579 21.449 C 150.524 35.622,149.375 36.018,124.219 37.113 C 95.291 38.371,87.907 45.045,80.441 76.680 C 75.536 97.464,74.921 98.624,62.500 110.542 C 42.903 129.345,41.736 130.811,39.494 139.422 C 36.657 150.317,38.038 156.556,47.276 174.568 C 58.062 195.600,58.175 196.219,55.383 218.982 C 51.360 251.787,55.661 259.206,86.298 272.311 C 107.284 281.288,107.072 281.107,120.736 301.796 C 138.223 328.276,146.547 331.215,177.344 321.783 C 199.232 315.080,200.768 315.080,222.656 321.783 C 253.453 331.215,261.777 328.276,279.264 301.796 C 292.928 281.107,292.716 281.288,313.702 272.311 C 344.339 259.206,348.640 251.787,344.617 218.982 C 341.825 196.219,341.938 195.600,352.724 174.568 C 361.622 157.219,363.194 150.703,360.891 140.715 C 358.826 131.760,356.455 128.700,337.500 110.532 C 325.079 98.626,324.466 97.470,319.559 76.680 C 312.105 45.096,304.812 38.453,276.159 37.147 C 250.490 35.977,249.787 35.734,230.197 21.248 C 212.692 8.302,204.627 5.353,193.359 7.776 M217.969 58.225 C 302.598 72.047,339.276 173.729,283.266 239.245 C 230.457 301.016,129.277 284.586,98.101 209.178 C 65.203 129.604,132.913 44.335,217.969 58.225 M191.595 68.809 C 108.606 75.333,71.180 177.234,130.039 236.409 C 182.189 288.839,271.995 267.267,294.063 197.009 C 315.197 129.727,262.077 63.267,191.595 68.809 M252.344 124.640 C 258.409 127.724,261.235 134.703,259.291 141.797 C 258.282 145.482,196.941 207.899,192.408 209.853 C 189.111 211.275,185.019 211.227,181.420 209.725 C 177.520 208.097,143.490 174.223,141.382 169.871 C 137.062 160.951,143.030 150.881,153.067 150.155 C 159.520 149.689,161.907 151.240,174.990 164.398 C 181.215 170.659,186.661 175.781,187.093 175.781 C 187.524 175.781,199.306 164.205,213.275 150.055 C 242.229 120.727,243.291 120.036,252.344 124.640 M287.999 309.406 C 274.455 330.015,264.814 336.897,247.852 338.060 C 244.307 338.303,241.405 338.716,241.403 338.977 C 241.392 340.982,266.174 392.257,267.333 392.624 C 269.484 393.307,269.532 393.242,279.322 376.342 L 288.513 360.476 304.998 363.443 C 323.453 366.764,326.050 366.871,326.413 364.321 C 326.634 362.773,297.018 297.679,296.094 297.681 C 295.879 297.681,292.236 302.957,287.999 309.406 M89.153 330.640 C 80.904 348.351,74.257 363.556,74.382 364.429 C 74.729 366.851,76.735 366.771,94.691 363.625 C 104.964 361.826,111.621 360.991,112.286 361.420 C 112.874 361.799,117.333 368.965,122.195 377.344 C 134.142 397.935,131.766 398.982,147.024 366.406 C 153.766 352.012,159.303 339.844,159.328 339.366 C 159.358 338.823,156.816 338.335,152.539 338.063 C 135.363 336.972,125.754 330.237,112.235 309.815 C 108.092 303.557,104.579 298.438,104.427 298.438 C 104.276 298.438,97.402 312.928,89.153 330.640 " stroke="none" fill="#ffffff" fill-rule="evenodd"></path></g></svg>