<svg xmlns="http://www.w3.org/2000/svg" viewBox="0 0 546.97 120.47"><defs><style>.cls-1{fill:#fff;}</style></defs><g id="Layer_2" data-name="Layer 2"><g id="Layer_2-2" data-name="Layer 2"><path class="cls-1" d="M547,82.11a10.49,10.49,0,0,0-5.5-9.23,10.57,10.57,0,0,0,1.5-5.44A10.69,10.69,0,0,0,523.72,61a8.77,8.77,0,0,0-1.44.3c0-.12,0-.25,0-.37A12.33,12.33,0,0,0,502,51.51a19.64,19.64,0,0,0-33-5,13,13,0,0,0-17.73,12.1c0,.25,0,.49,0,.73a7.77,7.77,0,0,0-1-.06,8.26,8.26,0,0,0-8.23,7.53,8.4,8.4,0,0,0-11.67-.93,8.16,8.16,0,0,0-12.92,3.4A8.34,8.34,0,0,0,404.45,73a11.33,11.33,0,1,0,2.49,18A10.39,10.39,0,0,0,417,99a10.84,10.84,0,0,0,2.07-.21,13.12,13.12,0,0,0,21.74,3.46,13.28,13.28,0,0,0,20.55,5.88,10.6,10.6,0,0,0,7.91,3.53,10.44,10.44,0,0,0,3.42-.57,13.92,13.92,0,0,0,26.92-2.32,14.88,14.88,0,0,0,22.48-4.83c.39,0,.78.06,1.18.06a15.32,15.32,0,0,0,14.82-11.48A10.5,10.5,0,0,0,547,82.11Z"/><path class="cls-1" d="M352.59,86.43a11.22,11.22,0,0,0-7.84,3.19,13.6,13.6,0,0,0-10-4.43,13.45,13.45,0,0,0-2.39.23c0-.08,0-.15,0-.23a11.25,11.25,0,0,0-11.25-11.25,11.42,11.42,0,0,0-3,.42,16.63,16.63,0,0,0-13.42-13.64A20.22,20.22,0,0,0,265.31,70a11.25,11.25,0,0,0-11,11.23A11.1,11.1,0,0,0,256,87l-.17.33a11.94,11.94,0,0,0-2.18-.21,11.75,11.75,0,0,0-10.36,6.2,8.73,8.73,0,0,0-9.13-.12,7.08,7.08,0,1,0-4.29,12.72l.36,0a8.74,8.74,0,0,0,15.9,2,11.7,11.7,0,0,0,12.41,1.64,12,12,0,0,0,15.64.54,15.08,15.08,0,0,0,23,2.31,19.12,19.12,0,0,0,10.35-3.68,14.67,14.67,0,0,0,22.79,3,13.81,13.81,0,0,0,4.48.76,13.59,13.59,0,0,0,11.13-5.78,11.24,11.24,0,1,0,6.74-20.23Z"/><path class="cls-1" d="M165.87,70.07a16.38,16.38,0,0,0-8.79,2.55A19.33,19.33,0,0,0,138,56.28a18.68,18.68,0,0,0-3.45.33A23.79,23.79,0,1,0,89.43,44.15,13.8,13.8,0,0,0,73.07,46.6,21.66,21.66,0,0,0,34,59.5v.09A19.83,19.83,0,0,0,16.29,76.05,13.19,13.19,0,0,0,13,75.61a13,13,0,1,0,8.13,23.14A8.75,8.75,0,0,0,26.19,101a10.44,10.44,0,0,0,18.26,4.76,19.41,19.41,0,0,0,32.24.08,22.67,22.67,0,0,0,39.54-1.64,18.37,18.37,0,0,0,31.6-1.79A11,11,0,0,0,158,101.13a16.53,16.53,0,1,0,7.9-31.06Z"/><path class="cls-1" d="M232.59,15.29v0a15.25,15.25,0,0,0-30.09-3.49A9,9,0,0,0,197.16,10a9.42,9.42,0,0,0-2.33.31A13.48,13.48,0,0,0,173.11,21c0,.1,0,.19,0,.29A9,9,0,0,0,184.76,35a8.74,8.74,0,0,0-.15,1.54,8.45,8.45,0,0,0,14.48,5.93,4.43,4.43,0,0,0,2.59.82,4.49,4.49,0,0,0,2.73-.94,8.46,8.46,0,0,0,11,1.14A10.73,10.73,0,0,0,231,37.71c.28,0,.55,0,.83,0a11.24,11.24,0,0,0,.73-22.46Z"/><path class="cls-1" d="M392.85,23A10.4,10.4,0,0,0,393,21.2a10.7,10.7,0,0,0-10.69-10.7,10.93,10.93,0,0,0-3,.43,16.24,16.24,0,0,0-28.55,7.52A8.91,8.91,0,0,0,346.53,26v0a8.22,8.22,0,0,0,0,16.38,9.73,9.73,0,0,0,17,1.54,11,11,0,0,0,16.21.82A12.74,12.74,0,1,0,392.85,23Z"/></g></g></svg>