<svg xmlns="http://www.w3.org/2000/svg" version="1.1" xmlns:xlink="http://www.w3.org/1999/xlink" xmlns:svgjs="http://svgjs.com/svgjs" width="1440" height="900" preserveAspectRatio="none" viewBox="0 0 1440 900"><g mask="url(&quot;#SvgjsMask1006&quot;)" fill="none"><rect width="1440" height="900" x="0" y="0" fill="rgba(140, 192, 222, 1)"></rect><path d="M1488 900L0 900 L0 437.44Q-14.16 351.28, 72 337.13Q101.52 294.65, 144 324.18Q232.19 292.37, 264 380.56Q322.25 366.81, 336 425.05Q350.04 319.09, 456 333.13Q522.52 279.65, 576 346.18Q709.04 359.23, 696 492.27Q672.4 396.67, 768 373.08Q787.43 320.51, 840 339.94Q883.56 311.5, 912 355.06Q1058.2 381.26, 1032 527.47Q1084.1 507.57, 1104 559.66Q1115.5 499.15, 1176 510.65Q1175.8 390.44, 1296 390.24Q1310.84 333.08, 1368 347.91Q1421.23 281.14, 1488 334.37z" fill="rgba(244, 191, 191, 1)"></path><path d="M1488 900L0 900 L0 723.19Q81.83 685.02, 120 766.84Q123.06 697.9, 192 700.96Q156.09 593.05, 264 557.14Q376.32 549.46, 384 661.78Q432.81 590.59, 504 639.39Q487.42 550.81, 576 534.23Q691.94 530.17, 696 646.12Q779.47 657.59, 768 741.06Q716.15 569.21, 888 517.36Q1045.08 602.44, 960 759.52Q930.93 658.45, 1032 629.38Q1012.31 537.69, 1104 518.01Q1233.06 527.07, 1224 656.13Q1319.98 680.12, 1296 776.1Q1282.26 642.36, 1416 628.61Q1433.08 573.69, 1488 590.77z" fill="rgba(255, 217, 192, 1)"></path><path d="M1536 900L0 900 L0 949.17Q-39.1 838.07, 72 798.97Q95.11 702.08, 192 725.19Q241.93 655.12, 312 705.05Q375.54 696.59, 384 760.13Q524.32 780.45, 504 920.77Q545.55 890.32, 576 931.87Q646.65 882.52, 696 953.18Q708.67 893.85, 768 906.52Q805.38 823.89, 888 861.27Q877.86 731.13, 1008 720.99Q1066.78 707.76, 1080 766.54Q1099.16 713.7, 1152 732.87Q1195.97 704.85, 1224 748.82Q1286.59 739.41, 1296 802Q1414.26 800.25, 1416 918.51Q1469.38 851.88, 1536 905.26z" fill="rgba(250, 240, 215, 1)"></path></g><defs><mask id="SvgjsMask1006"><rect width="1440" height="900" fill="#ffffff"></rect></mask></defs></svg>