<svg xmlns="http://www.w3.org/2000/svg" viewBox="0 0 698.73 778.25"><defs><style>.cls-1{fill:#fdc400;}.cls-2{fill:#2c2c2c;}.cls-3{fill:#ffc543;}</style></defs><g id="Layer_2" data-name="Layer 2"><g id="Layer_3" data-name="Layer 3"><path class="cls-1" d="M357.93,226.69a18.45,18.45,0,0,0-4.42,2.37c-1.11.74-2.28,1.4-3.43,2.09-1.83,1.09-3.66,2.17-5.47,3.27q-5.94,3.62-11.86,7.23Q319.07,250,305.47,258.5c-7.62,4.75-15.15,9.61-22.71,14.44q-4.58,2.93-9.09,5.95c-2.65,1.77-5.22,3.64-7.75,5.57a48.48,48.48,0,0,0-6.94,5.91c-1.83,2-3.82,4.83-3.21,7.71a5.44,5.44,0,0,0,.33,1.06L245.75,306q-2.44,1.64-4.87,3.29l-2.78,1.87c-1.1.74-2.21,1.47-3.3,2.24-.84.6-1.65,1.25-2.44,1.9a20.63,20.63,0,0,0-2.05,2.13,6,6,0,0,0,4.22,10.19c1.56.05,3.1.21,4.65.14a25.13,25.13,0,0,0,5.29-1c1.35-.38,2.69-.84,4-1.34l-.62.41-7.34,4.86c-1.41.93-2.84,1.83-4.27,2.73a87.5,87.5,0,0,0-8.55,6.3,6.29,6.29,0,0,0,6.12,10.51c2.93-.86,5.91-1.56,8.79-2.59,1.77-.63,3.49-1.43,5.21-2.18,1.26-.56,2.51-1.15,3.76-1.75l-1.25.86c-2,1.38-4,2.77-6,4.15-3.25,2.25-6.35,4.7-9.52,7.07l-1.7,1.31a8.3,8.3,0,0,0-2.15,3.7c-.11.75-.21,1.49-.31,2.23a8.35,8.35,0,0,0,1,3.93,12.32,12.32,0,0,0,1.6,3.35c.45.57.89,1.15,1.33,1.72.67.55,1.35,1.08,2.07,1.57a12.35,12.35,0,0,0,2.92,1.16,17.73,17.73,0,0,0,4.71.59,26.51,26.51,0,0,0,5.53-.71,39.91,39.91,0,0,0,7.21-2.41c2.75-1.13,5.45-2.34,8.17-3.52,2.42-1,4.87-1.86,7.29-2.84,2.8-1.12,5.57-2.3,8.33-3.51l-8.53,5.84c-1.34.92-2.62,1.93-3.92,2.89l-9.14,6.76c-1.92,1.42-3.83,2.87-5.77,4.25-1.33.94-2.71,1.8-4.07,2.68-1.66,1.09-3.23,2.29-4.8,3.51a20.22,20.22,0,0,0-4,4.21,21.8,21.8,0,0,0-2.36,5,7,7,0,0,0,7.92,10.11c3.08-1,6.19-1.87,9.28-2.81a99.76,99.76,0,0,0,10.74-3.9q3.28-1.41,6.49-3l-2.24,1.61c-3,2.12-6.13,4-9.07,6.13a43.82,43.82,0,0,0-5.16,4.35,32.63,32.63,0,0,0-3.86,5.46,6.83,6.83,0,0,0,4.09,10l1.82.25a6.88,6.88,0,0,0,3.45-.94h0c6.2-2.59,12.46-5,18.58-7.77s12.19-6.07,18.13-9.38l.25-.15q-19.94,12.84-39.93,25.59-6.52,4.16-13.09,8.29a7.09,7.09,0,0,0-1.44,11.15,6.82,6.82,0,0,0,5,2.07c1.11-.09,2.21-.17,3.31-.37a18,18,0,0,0,2.15-.59c1.46-.48,2.9-1,4.34-1.59,3.46-1.36,6.86-2.9,10.2-4.54,2.8-1.38,5.56-2.84,8.32-4.31,2.31-1.21,4.66-2.36,6.94-3.62q4.32-2.4,8.63-4.81l2.21-1.23c-1.26.79-2.54,1.58-3.82,2.35-3.35,2-6.83,3.8-10.1,5.94a49,49,0,0,0-5.79,4.43,55,55,0,0,0-4.35,5A8.7,8.7,0,0,0,273,465l2.07.87a8.87,8.87,0,0,0,4.63,0c6.49-1.17,13.1-1.7,19.45-3.59A148,148,0,0,0,313.54,457l-3,2q-11.94,7.78-23.78,15.68c-1.86,1.24-3.66,2.55-5.49,3.83a8.1,8.1,0,0,0,4.09,15.1,40.79,40.79,0,0,0,6-.6,29.82,29.82,0,0,0,4.33-1.37A93.18,93.18,0,0,0,306,487.09c2.77-1.4,5.49-2.91,8.21-4.4,3.05-1.67,6.13-3.25,9.19-4.89,11.14-5.95,22-12.41,32.85-18.84l-2.93,2c-2,1.29-3.89,2.65-5.83,4L331,476.24q-10.74,7.39-21.53,14.69-18.11,12.19-36.23,24.34a8,8,0,0,0-3.52,4.58,7.75,7.75,0,0,0,.77,5.9,7.67,7.67,0,0,0,4.58,3.52,7.89,7.89,0,0,0,5.9-.77,187.48,187.48,0,0,0,17-10.41l2.3-1.53a9.23,9.23,0,0,0,1.14,6.14l1.44,1.87a9.24,9.24,0,0,0,3.61,2.23,22.63,22.63,0,0,0,2.33,1,19,19,0,0,0,3.68.59,9.19,9.19,0,0,0,2-.18c1.3-.18,2.54-.32,3.8-.59a25.39,25.39,0,0,0,4.07-1.31c.66-.26,1.32-.53,2-.81a9.48,9.48,0,0,0,2.78,6.65l1.92,1.49a9.58,9.58,0,0,0,4.79,1.29,34.3,34.3,0,0,0,3.65.29,27.51,27.51,0,0,0,5.76-.89c1.47-.34,2.92-.73,4.37-1.09,1.87-.46,3.74-.91,5.6-1.39,4.15-1.07,8.28-2.18,12.4-3.36a8.8,8.8,0,0,0,3-15.48l2.46-1.63c7.78-5.22,15.63-10.35,23.34-15.66l22.19-15.3c9.7-6.69,19.27-13.55,28.87-20.38a9.2,9.2,0,0,0,3.25-3.25,9,9,0,0,0,1.23-4.57,9.08,9.08,0,0,0-4.48-7.83,18.58,18.58,0,0,0-3.37-1.44,10.93,10.93,0,0,0-5.18,0l3.3-2.26c3.08-2.15,6.08-4.45,9-6.88a33.5,33.5,0,0,0,3.25-3.05,55.43,55.43,0,0,0,3.95-5.44,8.67,8.67,0,0,0-1.36-10.5,9,9,0,0,0-1.74-1.34l2.57-1.87c4.58-3.31,9.14-6.65,13.64-10.07s9.14-7.11,13.54-10.88c2-1.74,4-3.53,5.88-5.45,2-2.11,4-4.33,6-6.47a8,8,0,0,0-3.53-13.36,7.61,7.61,0,0,0-1.91-.28c5-3.05,9.95-6.11,14.81-9.37,1.53-1,3.06-2.06,4.54-3.16,1.71-1.26,3.32-2.63,5-4a7.88,7.88,0,0,0-3.47-13.16,8.29,8.29,0,0,0-6.07.79q-9.76,4.78-19.46,9.71c-3.25,1.65-6.51,3.27-9.73,5l-29,15.44c-2.26,1.2-4.45,2.56-6.66,3.83l-16.66,9.6q-12.69,7.32-25.39,14.63c-7,4-14,8-21,11.93-7.24,4.11-14.51,8.17-21.86,12.1-5.83,3.12-11.75,6.08-17.68,9l6.37-4.19c7.72-5.05,15.39-10.16,23.14-15.15l26.82-17.26L409,380.68c2-1.29,4-2.64,6-3.87l27.63-16.72,16-9.67c3.58-2.17,7.21-4.22,10.85-6.27,3.34-1.88,6.67-3.79,9.89-5.87,1.71-1.1,3.38-2.27,5-3.49a31.67,31.67,0,0,0,3.28-2.71c.71-.7,1.35-1.48,2-2.21a7.79,7.79,0,0,0,1.2-9.31,7.71,7.71,0,0,0-4.59-3.53l-2-.27a7.56,7.56,0,0,0-3.88,1.05q-14.62,6.82-29.11,13.95l-17.48,8.58c-2.78,1.37-5.6,2.69-8.35,4.12l-7.28,3.8,2.64-1.62q4.15-2.58,8.27-5.25c2.48-1.61,4.91-3.27,7.47-4.75,5.54-3.22,11.38-5.94,16.63-9.64a34,34,0,0,0,7.38-6.62,23.7,23.7,0,0,0,2.87-4.37,8.22,8.22,0,0,0,.94-4.3,33.94,33.94,0,0,0-.58-3.47,6.22,6.22,0,0,0-3-3.84,6.52,6.52,0,0,0-6.48,0c-6.59,3.57-13.18,7.11-19.71,10.77l-17.36,9.75c-6.87,3.86-13.76,7.67-20.65,11.5-8.84,4.91-17.73,9.72-26.52,14.73l-25.62,14.54-13,7.39q4.26-2.9,8.6-5.71l32.53-21c15.68-10.09,31.28-20.32,46.9-30.51,6.87-4.49,13.42-9.46,20.1-14.21a6.72,6.72,0,0,0,2.86-3.72,6.23,6.23,0,0,0-4.35-7.66,6.48,6.48,0,0,0-4.8.63c-2.77,1.37-5.5,2.78-8.16,4.36-3.06,1.8-6,3.73-9,5.63-1.79,1.13-3.58,2.22-5.38,3.33l-16.53,10.17c-2.62,1.61-5.2,3.26-7.85,4.81l-12.47,7.21-28,16.19c-2.34,1.35-4.75,2.59-7.12,3.88l-17.21,9.39-22,12q-3.48,1.89-6.93,3.8l13.83-9.43c2.3-1.57,4.68-3,7-4.52q8.54-5.49,17.09-11c6.24-4,12.5-8,18.69-12.07q25.61-16.9,51.12-33.93l15-10.07c6.41-4.3,12.69-8.8,19-13.23a7.43,7.43,0,0,0-5.72-13.58c-1.38.44-2.78.84-4.17,1.29a54.64,54.64,0,0,0-5.37,2.22c-3.19,1.42-6.26,3.08-9.35,4.7l-6,3.11-17,9c-2.33,1.22-4.6,2.51-6.87,3.84L363,297.87q-15.5,9-30.95,18.21c-10.19,6.07-20.44,12-30.95,17.49-8.21,4.29-16.46,8.53-24.88,12.37,6.16-4.38,12.33-8.75,18.46-13.18q25.26-18.24,50.46-36.53c5.22-3.79,10.36-7.73,15.72-11.33,8-5.35,16-10.6,23.8-16.21l1.38-1.07a6.75,6.75,0,0,0,1.76-3,6.81,6.81,0,0,0-9.37-8.05q5.12-3,10.22-6l6-3.56c2.56-1.52,5-3.16,7.54-4.76a5.28,5.28,0,1,0-5.33-9.12c-8.81,4.51-17.49,9.34-26.16,14.12q-11.89,6.54-23.77,13.09Q319.11,275.72,291.15,291l-4.33,2.34,3.86-2.41c3.25-2,6.45-4.16,9.76-6.08l14.71-8.52c4.18-2.43,8.38-4.82,12.54-7.3,5.7-3.41,11.5-6.66,17-10.33,2.6-1.72,5.1-3.58,7.59-5.45a98.47,98.47,0,0,0,8.22-6.77,39.72,39.72,0,0,0,4.9-5.62,40.48,40.48,0,0,0,2.91-5.77,6,6,0,0,0,0-5.94,6,6,0,0,0-5.08-2.92h-1.35a12.31,12.31,0,0,0-4,.52m-95.54,197.8-.23.1.23-.1"/><path class="cls-2" d="M390.82,222.45c-9.48.24-19,.58-28.42,1.36-2.37.19-4.71.49-7.07.81-1.24.16-2.48.28-3.7.52l-4.5.89c-.92.18-1.82.46-2.73.7s-2.09.52-3.12.85c-2.19.71-4.38,1.4-6.55,2.14s-4.44,1.45-6.62,2.27l-8.05,3c-2.22.84-4.39,1.82-6.58,2.73s-4.32,1.8-6.45,2.77c-8.62,3.9-17.17,8-25.54,12.39-4.37,2.3-8.82,4.51-13,7.19-1.91,1.22-3.84,2.44-5.65,3.81l-3.18,2.4c-1,.75-1.93,1.51-2.84,2.33a19.87,19.87,0,0,0-2.36,2.66c-3.73,4.74-7.13,9.71-10.56,14.66a5.47,5.47,0,0,0-.57,4.33,5.64,5.64,0,0,0,6.92,3.93,5.9,5.9,0,0,0,3.36-2.58q4-5.79,8.16-11.49c.35-.43.69-.86,1-1.28a20.88,20.88,0,0,1,3-3c1.8-1.31,3.59-2.58,5.44-3.82,1.7-1.14,3.42-2.32,5.22-3.29,4.07-2.19,8.13-4.39,12.28-6.42,4.59-2.25,9.17-4.49,13.79-6.69,3.89-1.84,7.83-3.57,11.77-5.29,6.43-2.59,12.86-5.2,19.46-7.34,3.7-1.19,7.39-2.36,11.1-3.49,1.72-.52,3.49-.87,5.23-1.31s3.48-.64,5.21-.94c1.54-.21,3.08-.43,4.63-.54l7.34-.53c4.51-.32,9.06-.39,13.59-.52,8.28-.24,16.62-.57,24.88.27a61.85,61.85,0,0,1,9.56,2.47c3.34,1.16,6.64,2.45,9.93,3.74,2.66,1.15,5.28,2.36,7.83,3.73a69.44,69.44,0,0,1,7.79,5,92.77,92.77,0,0,1,7.56,7.15c3,3.2,5.82,6.51,8.51,9.94a137.83,137.83,0,0,1,16.53,28.66c1.8,4.33,3.43,8.71,5,13.12,1,2.74,2.07,5.47,2.95,8.25q1.74,5.58,3.49,11.15c.95,3,1.68,6.14,2.39,9.22.95,4.1,1.67,8.25,2.26,12.41.69,5.38,1.17,10.8,1.36,16.22a111.31,111.31,0,0,1-.54,16.63c-.43,2.86-1,5.69-1.65,8.51A63,63,0,0,1,486,400.8a86,86,0,0,1-10,16.92,145.09,145.09,0,0,1-12.78,14.14q-4.28,4.15-8.68,8.2L441,452.39c-3.08,2.82-6,5.77-9,8.68s-6.24,6.06-9.28,9.18c-4.51,4.63-9,9.27-13.4,14a196.66,196.66,0,0,0-13.63,15.64,6.2,6.2,0,0,0,5.36,9.33,6,6,0,0,0,4.39-1.82c3.22-3.76,6.8-7.2,10.35-10.65q5.06-4.9,10.08-9.84c3.39-3.3,6.73-6.66,10.16-9.92q6-5.72,12-11.42c2.89-2.75,5.86-5.42,8.81-8.11,4.77-4.35,9.54-8.7,14.22-13.15,2.34-2.22,4.65-4.48,6.87-6.82,2.38-2.49,4.6-5.12,6.77-7.79a99.29,99.29,0,0,0,11.52-17.22,76.78,76.78,0,0,0,7-19.68,105.35,105.35,0,0,0,1.92-22.41,176.58,176.58,0,0,0-1.84-22,158.05,158.05,0,0,0-4.12-20c-1.37-5.06-3.11-10-4.7-15-.74-2.32-1.69-4.58-2.53-6.86-.94-2.55-1.86-5.1-2.85-7.62a195.19,195.19,0,0,0-8.94-19.78,126.52,126.52,0,0,0-10.72-16.9c-2.46-3.26-5.05-6.37-7.68-9.48-1.41-1.67-2.91-3.25-4.39-4.85s-3.45-3.31-5.17-4.93a62.72,62.72,0,0,0-6.36-5,64.93,64.93,0,0,0-12.25-6.68c-4.47-1.9-9-3.74-13.6-5.3-2.31-.78-4.62-1.47-7-2.07a57.87,57.87,0,0,0-8.38-1.27,68,68,0,0,0-7-.31c-2.28,0-4.56.07-6.82.13m82.23,73.08c.07.15.13.3.19.45-.06-.15-.12-.3-.19-.45"/><path class="cls-2" d="M376,265.3a32.79,32.79,0,0,0-5.39.73,29,29,0,0,0-4.27,1.25,20.73,20.73,0,0,0-4.22,2,21.27,21.27,0,0,0-2.07,1.61,15.61,15.61,0,0,0-2.14,2.58,22.39,22.39,0,0,0-2.12,3.68c-.74,1.49-1.39,3-2,4.59a56.64,56.64,0,0,0-2.76,9.74,67.81,67.81,0,0,0-1.21,10,38.51,38.51,0,0,0,1.39,10.94c1.61,6.58,4.75,12.75,8.25,18.51,4.43,7.32,9.16,14.45,13.89,21.58,1.94,2.93,3.72,6,5.39,9.06a129.61,129.61,0,0,1-20.48,20.74A74,74,0,0,1,344,391.15l-.17.06c-.77-3.65-1.39-7.32-2.09-11-.84-4.4-1.82-8.8-3-13.12A124.27,124.27,0,0,0,334.19,354a135.81,135.81,0,0,0-6.14-13.24A72.09,72.09,0,0,0,320,328.5a48.81,48.81,0,0,0-3.56-4,25.53,25.53,0,0,0-2.39-1.9,14.52,14.52,0,0,0-1.87-1.16,23,23,0,0,0-2.89-1.26c-.95-.36-1.91-.66-2.89-.94a26.35,26.35,0,0,0-5.23-.8,25.54,25.54,0,0,0-5.08.4A21.75,21.75,0,0,0,292,320c-1.91.66-3.78,1.43-5.62,2.27a35.87,35.87,0,0,0-8.2,5.68c-1.2,1.06-2.34,2.19-3.44,3.35a39.23,39.23,0,0,0-3.67,4.26,31.94,31.94,0,0,0-4.14,8.75,63.73,63.73,0,0,0-2.44,9.84,48.26,48.26,0,0,0-.59,9.68,28.64,28.64,0,0,0,.78,5.28,36.13,36.13,0,0,0,2.09,5.71A31.22,31.22,0,0,0,272.1,383a63,63,0,0,0,6.86,6.71,68.51,68.51,0,0,0,7.87,5.77,41.13,41.13,0,0,0,9.5,4.19,71.38,71.38,0,0,0,9.35,2.11c2.9.52,5.83.94,8.74,1.24,5.41.56,10.84,1.23,16.29,1.29.78,0,1.57,0,2.36,0,.31,1,.59,2,.9,3.06,1.3,4.29,2.52,8.61,3.69,12.94,1.22,4.52,2.37,9.05,3.42,13.62,1,4.41,2,8.82,3.14,13.21,1.06,4.13,2.18,8.26,3.1,12.43,1.58,7.13,2.84,14.31,3.91,21.53.2,1.45.39,2.91.59,4.37,0,0,0,0,0,.06l.15,1.13c.27,2.07.52,4.14.79,6.21,0-.39-.1-.78-.16-1.17a70.46,70.46,0,0,1,0,8c-.06,2.26-.13,4.53-.34,6.78-.1.51-.23,1-.38,1.53a25.69,25.69,0,0,0-2.54,1.34,28,28,0,0,1-3.65,2.09c-2.05,1-4.09,1.93-6.16,2.86-5.64,2.16-11.41,3.91-17.11,5.88-3,1-6.06,2.08-9.13,3a66.72,66.72,0,0,1-8.21,1.87c-1.28.12-2.56.21-3.85.27-1.5.07-3,0-4.52-.09-2.87-.14-5.73-.46-8.6-.77a48.87,48.87,0,0,1-9.56-2.1,57.67,57.67,0,0,1-8.58-5.34,45.21,45.21,0,0,1-5.81-5.6,73,73,0,0,1-5.41-9.14c-1.64-3.21-3.2-6.46-4.63-9.77-3.44-8.36-6.38-16.92-9.35-25.46-1.5-4.29-3-8.57-4.45-12.87s-2.7-8.35-3.88-12.59c-.76-2.71-1.57-5.42-2.23-8.17-.71-3-1.55-6-2.14-9s-1.34-6.26-1.86-9.4c-.46-2.86-.94-5.71-1.41-8.56q-.39-3.66-.79-7.34c-.22-2.12-.29-4.25-.39-6.38s-.19-4.09-.18-6.14c0-2.36,0-4.72,0-7.07.07-4.83.12-9.66.29-14.48.07-2.21.09-4.43.23-6.64.16-2.44.22-4.91.48-7.35l.54-4.83c.38-2.51.75-5,1.2-7.52.26-1.42.45-2.87.79-4.27s.61-2.95,1.05-4.37c1.85-6,3.84-12,6.24-17.76a35.91,35.91,0,0,1,3-5.65c.77-1.16,1.59-2.28,2.41-3.4l3.42-4.69a74.75,74.75,0,0,1,6-6.73c2.15-2.1,4.46-4,6.74-6a3.21,3.21,0,0,0,0-4.52,3.27,3.27,0,0,0-4.51,0c-2.28,2-4.57,3.93-6.75,6A61.55,61.55,0,0,0,241.7,295c-1.42,1.91-2.85,3.81-4.26,5.71-.94,1.27-1.87,2.53-2.72,3.85a32.61,32.61,0,0,0-2.12,4.06c-.77,1.69-1.48,3.41-2.16,5.13-.88,2.24-1.76,4.47-2.61,6.72a92.31,92.31,0,0,0-4.22,13.08c-.53,2.46-1,4.94-1.54,7.41-.46,2.26-.83,4.5-1.14,6.79-1.34,9.83-1.62,19.78-2,29.69-.07,1.93-.13,3.85-.18,5.78-.07,2.18-.21,4.36-.15,6.54.06,2.63.11,5.26.18,7.88,0,.94.15,1.89.23,2.82.14,1.73.29,3.46.43,5.18.19,2.35.57,4.69.89,7,.28,2,.54,4.09.89,6.12l1.44,8.41c.4,2.36,1,4.71,1.5,7.05q1.35,6.27,3,12.48c.59,2.26,1.11,4.55,1.8,6.78.76,2.5,1.53,5,2.3,7.49,1.34,4.36,2.72,8.7,4.06,13.06s2.54,8.54,3.93,12.77,2.87,8.54,4.52,12.75c1.77,4.5,3.8,8.93,5.94,13.27a43.32,43.32,0,0,0,3.37,5.68,36.92,36.92,0,0,0,5.07,6,68,68,0,0,0,11.65,8.76c4.47,2.65,9.41,3.82,14.47,4.64,2.67.43,5.36.78,8.05,1.08a59.27,59.27,0,0,0,13.83.36c2.45-.32,4.89-.65,7.31-1.15q2.53-.54,5-1.28c3.62-1,7.19-2.25,10.79-3.36s7.07-2.23,10.59-3.39c3.75-1.23,7.35-2.82,11-4.39a61.08,61.08,0,0,0,6.59-3c.78-.43,1.6-.79,2.38-1.22a13.72,13.72,0,0,0,4.6-4.43,15.08,15.08,0,0,0,1.69-3.91,19.37,19.37,0,0,0,.48-3.13c0-.4.06-.81.09-1.21.06-1.08,0-2.17,0-3.25,0-2,0-3.93,0-5.9s0-4.2,0-6.3-.4-4-.59-6.06c-.48-4.92-1.13-9.83-1.88-14.72a248.22,248.22,0,0,0-5.58-26.43c-2.34-8.82-4.22-17.76-6.64-26.56-1.19-4.31-2.38-8.62-3.66-12.9-.49-1.63-1-3.25-1.52-4.87a50,50,0,0,0,6.14-2.91,77.37,77.37,0,0,0,9.06-5.91,122.65,122.65,0,0,0,9.84-8.07c3.25-3,6.19-6.25,9.14-9.51q1.52-1.65,2.94-3.38c.5,1.2,1,2.4,1.42,3.63.66,2,1.32,3.94,1.92,5.93,1.16,3.93,2.28,7.86,3.27,11.83a226.91,226.91,0,0,1,4,22.89q.42,3.12.88,6.24c.53,4,1,8,1.25,12,.28,4.81.47,9.61.59,14.43.1,4.55.13,9.11.27,13.66s.5,9.06.57,13.59a103.08,103.08,0,0,1-.53,11.91c-.44,2.22-1.09,4.39-1.75,6.56a29.71,29.71,0,0,0-.84,3.47c-.26,1.43-.63,2.82-.87,4.25l-.28,2a7.67,7.67,0,0,0,11.53,6.61l1.55-1.2a7.75,7.75,0,0,0,2-3.38c.39-1.05.78-2.11,1.12-3.19s.55-2.08.81-3.12c.48-1.93,1-3.82,1.27-5.78.24-1.6.47-3.2.59-4.81.08-1.11,0-2.24.06-3.35,0-2.26.11-4.52.12-6.77,0-4.51-.4-9-.73-13.47-.36-4.69-.53-9.39-.72-14.1A247.75,247.75,0,0,0,409,423.45c-.71-4.49-1.47-9-2.3-13.46s-1.65-9.1-2.64-13.62-2.29-8.81-3.62-13.15-2.71-8.84-4.48-13.12c-1.25-3-2.61-5.93-4.07-8.82l.57-.95a48.64,48.64,0,0,0,4.2-10c.73-2.34,1.29-4.7,1.87-7.08.24-1,.42-2,.63-3s.52-2.3.71-3.45q.57-3.54,1.13-7.08c.46-2.89.7-5.81,1-8.71.26-2.29.42-4.59.63-6.89q.27-3.07.45-6.17a99.59,99.59,0,0,0,.34-11.19,53.29,53.29,0,0,0-1.18-8.43c-.26-1.18-.46-2.39-.78-3.55-.45-1.68-.9-3.34-1.5-5a21,21,0,0,0-5.29-8.61c-2.42-2.14-5.51-3.3-8.52-4.33a26.67,26.67,0,0,0-4.47-1.07,31.18,31.18,0,0,0-5.1-.45H376m2,11.13a34.41,34.41,0,0,1,6.6,1.92,19.9,19.9,0,0,1,2.41,1.29l.46.47A23.93,23.93,0,0,1,389,283a37.7,37.7,0,0,1,1.62,5.27c.51,2.26,1,4.51,1.39,6.79a56.33,56.33,0,0,1,.21,8l-.18,4.29c-.09,2.17-.21,4.35-.38,6.51s-.3,4.61-.54,6.91-.49,4.6-.74,6.91c-.31,2-.61,4-.91,6-.33,2.15-.84,4.28-1.27,6.4a71.85,71.85,0,0,1-2.7,10c-1-1.58-2.1-3.13-3.19-4.68-2.45-3.5-4.89-7-7.28-10.57-4.13-6.16-8.4-12.36-11.43-19.14a51.09,51.09,0,0,1-3-10.34,40.27,40.27,0,0,1,.2-8.64,58.58,58.58,0,0,1,3.38-12.76,31.69,31.69,0,0,1,2.66-4.85q.3-.33.63-.63c.31-.21.64-.4,1-.58a37.92,37.92,0,0,1,5.23-1.36,23.21,23.21,0,0,1,4.25,0m-76.71,54.3a24.28,24.28,0,0,1,3.83,1.1,17.54,17.54,0,0,1,1.93,1.11,22.85,22.85,0,0,1,2.45,2.66q1.62,2.14,3.12,4.36a59.12,59.12,0,0,1,3.05,5.36c1.8,3.37,3.43,6.81,5,10.31,1.58,3.94,3.08,7.94,4.29,12,1.29,4.33,2.21,8.74,3.12,13.17.83,4.06,1.43,8.16,2.22,12.23-5.32-.17-10.65-.89-15.91-1.49-6.05-.84-12.15-1.87-17.87-4.07a43.59,43.59,0,0,1-8-4.9,59.72,59.72,0,0,1-9-8.71,29.36,29.36,0,0,1-2.73-4.78,26.69,26.69,0,0,1-1.31-4.51,40,40,0,0,1,.13-7.66,59.19,59.19,0,0,1,3.17-11.7,21.91,21.91,0,0,1,1.86-3.17c.93-1.08,2-2.08,3-3.09a46.39,46.39,0,0,1,3.63-3.24,31,31,0,0,1,5.21-3.07,36.94,36.94,0,0,1,6.19-1.91,20.12,20.12,0,0,1,2.69,0m85,38.51-.13.16.05-.06.08-.1m8.1,45.45c0,.18.05.36.07.54,0-.18-.05-.36-.07-.54"/><path class="cls-3" d="M253.27,776a13.08,13.08,0,0,0,9.62,2.06,13.6,13.6,0,0,0,9.05-5.92l0,0a26.25,26.25,0,0,0,2.32-4.64c.15-.39.28-.8.41-1.21l.11-.32c.23-.7.47-1.4.71-2.09.55-1.55,1.1-3.09,1.68-4.64,1.17-3.14,2.43-6.26,3.62-9.15q1.32-3.21,2.62-6.42c1.68-4.15,3.42-8.44,5.21-12.6,3.14-7.31,6.27-14.77,9.32-22.15,1.06-2.56,2-5.11,2.8-7.57l.43-1.22c.36-1,.74-2.05,1.11-3.07.86-2.35,1.74-4.78,2.49-7.29l.94-3.16c1.92-6.44,3.9-13.11,5.72-19.73,2.39-8.76,4.72-17.52,7.05-26.28a12.76,12.76,0,0,0-.37-8.72,12,12,0,0,0-7-6.46,12.77,12.77,0,0,0-9.44.47,14,14,0,0,0-3,1.87,11.77,11.77,0,0,0-4,5.95l-.18.68c-2,7.66-4.07,15.32-6.18,23-2.24,8.09-4.62,16-6.65,22.76-.78,2.6-1.72,5.21-2.64,7.76l-2.91,8.22c-.22.65-.44,1.31-.71,1.95-2.8,6.62-6,14.13-9.26,21.49-2.11,4.77-4.19,9.57-6.26,14.36l-3.91,9c-1,2.22-2,4.44-2.87,6.67l-.88,2.09a100.67,100.67,0,0,0-3.69,9.65C246.83,767,248.66,772.81,253.27,776Z"/><path class="cls-3" d="M90,654.72a13.55,13.55,0,0,0,10.4-.51,67.16,67.16,0,0,0,11.36-7.15l9.9-7.35,7.5-5.53q5.31-3.91,10.64-7.84c9.46-6.94,18.71-13.79,27.74-21.22,3.78-3.11,7.21-6.07,10.49-9,6.65-6,14.37-13,21.81-20.36l6.06-6c1.55-1.53,3-3.1,4.32-4.62.57-.65,1.15-1.29,1.73-1.92,3.89-4.25,7.43-8.61,10.37-12.31a12.51,12.51,0,0,0,2.62-9.52,12.66,12.66,0,0,0-5.27-8.8,13.09,13.09,0,0,0-15.86.92,14.28,14.28,0,0,0-2.21,2.25c-1.89,2.36-3.82,4.68-5.75,7l-1.7,2c-.64.79-1.36,1.53-2.08,2.28-.41.43-.83.87-1.23,1.31L188.41,551c-5.49,5.38-11.33,11-17.84,17-5.16,4.83-10.75,9.51-16.16,14l-2.12,1.78c-5.86,4.9-12.25,9.55-18.43,14-4.5,3.27-9.05,6.5-13.6,9.73l-6.36,4.52c-3.27,2.33-6.56,4.63-9.85,6.93l-5.18,3.63c-1.81,1.27-3.63,2.54-5.47,3.79-.52.35-1.05.7-1.59,1a33.91,33.91,0,0,0-5.7,4.28,14.27,14.27,0,0,0-4,5.63,13.57,13.57,0,0,0,.16,10.25A13.2,13.2,0,0,0,90,654.72Z"/><path class="cls-3" d="M8.86,378.83a62.55,62.55,0,0,0,7.24,1.24c1.59.16,3.18.31,4.78.45l10.56,1c5.55.5,12.84,1.17,20.05,2,7.55.89,14.14,1.78,20.13,2.71,6.46,1,13.35,2,22.34,3.2,1.81.25,3.63.41,5.45.57l2.49.23,6.34.62c6.29.56,11.39,1.09,16,1.65a12.63,12.63,0,0,0,9.48-2.87,13.25,13.25,0,0,0,4.77-8.62,12.16,12.16,0,0,0-10.86-13.47c-4.76-.59-9.57-1-14.22-1.5l-6.25-.62-3.28-.31c-2.41-.22-4.69-.44-7-.75L84.9,362.69c-2.43-.33-4.84-.73-7.26-1.12L74,361c-2.45-.38-4.91-.72-7.37-1.07l-2.82-.4c-6.32-.9-12.73-1.6-18.92-2.28l-1.6-.17q-11.19-1.23-22.38-2.35L14.36,354a13,13,0,0,0-9.54,3,13.14,13.14,0,0,0-3.95,5.45A12.62,12.62,0,0,0,1,372,11.89,11.89,0,0,0,8.86,378.83Z"/><path class="cls-3" d="M81.31,161.07c.72.71,1.45,1.42,2.14,2.12,4,4,8.07,7.57,11.92,10.79l4,3.28c1.93,1.59,3.86,3.19,5.75,4.81q2.48,2.13,4.92,4.28c1.93,1.69,3.87,3.38,5.8,5,3.73,3.21,7.75,6.64,12,10s8.5,6.47,12.34,9.24c2.71,2,5.51,3.77,8.21,5.54l2.93,1.92c4.31,2.86,8.5,5.75,12.77,8.72,3.33,2.31,6.65,4.88,9.87,7.37l1.89,1.46c5.19,4,12.94,3.64,18.43-.88a15.37,15.37,0,0,0,2.68-2.85v0a14.65,14.65,0,0,0-3-20.43c-7.69-5.93-15.87-11.88-24.33-17.68l-2.08-1.42c-6.24-4.26-12.7-8.67-18.46-13.48-3.63-3-7.17-6-10.68-9.14q-3.28-2.92-6.52-5.9l-3.92-3.56c-3.11-2.84-6.33-5.76-9.61-8.58l-3-2.61c-1.89-1.61-3.78-3.23-5.65-4.86l-1.73-1.65c-1.17-1.11-2.34-2.23-3.52-3.32-.67-.62-1.33-1.25-2-1.88-2.35-2.23-4.78-4.54-7.46-6.66-5.17-4.1-13.22-3.77-18.72.76a15.19,15.19,0,0,0-2.63,21A73.3,73.3,0,0,0,81.31,161.07Z"/><path class="cls-3" d="M301.67,153.21a12,12,0,0,0,8.49-2.76,11.23,11.23,0,0,0,4.17-8v0a116,116,0,0,0-.18-15.12c-.24-3-.63-5.87-1-8.46L313,117.1c-.41-2.93-.81-5.87-1.25-8.8l-.39-2.54c-.39-2.55-.79-5.1-1.1-7.68-.14-1.13-.29-2.27-.44-3.4-.32-2.39-.63-4.64-.8-6.88-1.13-14.39-1.94-28.75-2.41-42.67L306.29,37c0-3.6-.06-6.85,0-10.11V26.6c.05-1.84.09-3.58.22-5.29.06-.76.16-1.51.25-2.27.16-1.37.33-2.79.37-4.33a14.09,14.09,0,0,0-3-9.74A13.82,13.82,0,0,0,294.61,0a14.81,14.81,0,0,0-10.46,3.33,15,15,0,0,0-5.25,9.35,36,36,0,0,0-.32,6c0,2,.11,4.23.27,6.92.19,3.12.47,6.24.74,9.35l.05.54c.58,6.53,1.24,13,1.91,19.56l.27,2.67c.74,7.07,1.43,14.14,2.12,21.22.6,6.17,1.47,12.81,2.71,20.9.69,4.52,1.5,9.07,2.27,13.46l.35,2c.28,1.6.51,3.21.75,4.82l.39,2.63a108.19,108.19,0,0,1,1.32,12.46c0,2.06-.05,4.12-.14,6.16A11,11,0,0,0,301.67,153.21Z"/><path class="cls-3" d="M457.16,175A12.61,12.61,0,0,0,466,172.3a9.51,9.51,0,0,0,.74-.67A118.35,118.35,0,0,0,477,159.92c1-1.25,1.89-2.53,2.81-3.8l1.37-1.89c2.06-2.8,4.13-5.83,6.15-9l.2-.31c2.22-3.45,4.52-7,6.65-10.66,2.31-3.89,4.55-7.8,6.79-11.73l.84-1.48c3.55-6.28,7.23-12.77,11.15-18.91a192.15,192.15,0,0,1,13.14-18,47.11,47.11,0,0,0,3.33-4.64c3.6-5.69,3.37-12.48-.58-17.29-5-6-14.16-6.78-20.51-1.72l-.35.29c-4.61,3.79-7.46,8.68-10,13l-.67,1.14C495,79,492.91,82.65,491.07,86h0l-1.89,3.51-.18.33L487.3,93h0c-2.6,4.89-5.09,9.87-7.51,14.69-1.56,3.12-3.13,6.24-4.64,9.2l-4.29,7.84c-1,1.74-2,3.47-3.17,5.3-.57.91-1.13,1.82-1.68,2.72-1.51,2.49-3.11,4.94-4.73,7.25l-1.12,1.58a106.24,106.24,0,0,1-7.79,10.19c-.66.69-1.32,1.38-2,2.05a13.17,13.17,0,0,0-4.12,8A11.82,11.82,0,0,0,457.16,175Z"/><path class="cls-3" d="M543.25,292.86a12,12,0,0,0,10,1.79l2.18-.67c3.23-1,6.45-2,9.68-2.9,3.48-1,7.12-1.7,10.26-2.27,4-.74,8-1.23,12.19-1.75,3.59-.45,7.31-.91,11-1.53,12.26-2.07,24-6.19,35.35-10.18l1.15-.4c8.2-2.88,15.66-5.45,22.8-7.85,3.44-1.16,7-2.26,10.46-3.32l.3-.1h0q4.68-1.38,9.4-2.74l3-.82a62.91,62.91,0,0,0,9.19-2.94,13.67,13.67,0,0,0,3.26-2,14.22,14.22,0,0,0,5.11-12.93h0a13.33,13.33,0,0,0-12-11.29c-4.58-.46-8.76.67-13,2-3.47,1.07-6.94,2.2-10.39,3.35-5.72,1.91-11.84,4.05-18.72,6.56q-9,3.27-17.94,6.67l-2,.75c-6.58,2.49-13.38,5.07-19.95,7.17-7.48,2.21-15.09,3.45-23.16,4.76-2.76.45-5.52.9-8.28,1.39a173.23,173.23,0,0,0-20.83,5.52l-4.22,1.3a14.92,14.92,0,0,0-5.39,2.7,13.47,13.47,0,0,0-2.25,2.41,12.85,12.85,0,0,0-2.27,9.2A12,12,0,0,0,543.25,292.86Z"/><path class="cls-3" d="M562.52,491.25a40.63,40.63,0,0,1,4.41.28,32.56,32.56,0,0,1,3.64,1.6c.6.3,1.21.59,1.81.87,1.12.51,2.22,1.06,3.32,1.61l1.16.57C582,499,588,502.42,594,506.06c2.43,1.48,4.84,3,7.25,4.49,3.79,2.36,7.59,4.73,11.43,7,4.6,2.75,9.36,5.27,14,7.71l3.88,2.07c3.57,1.91,6.58,3.48,9.72,5,1.23.58,2.45,1.18,3.66,1.78,1.61.8,3.22,1.59,4.85,2.34l1.74.77.85.37v0a13.12,13.12,0,0,0,15.74-.79c4.62-3.8,6.22-10.46,3.72-15.48a20.59,20.59,0,0,0-8.85-9.24c-1.82-.94-3.75-1.85-6.27-3-1.82-.8-3.65-1.53-5.49-2.27-1.49-.6-3-1.19-4.45-1.82-5.79-2.47-12-5.31-18.87-8.69L620.62,493c-1.55-.82-3.06-1.73-4.56-2.63L613.71,489c-3.94-2.29-8.14-4.65-13.62-7.64-4.82-2.64-10-5.42-15.49-7.93-2.55-1.17-5.13-2.32-7.73-3.42-4.06-1.73-8.17-2-12.39-2.08a12.63,12.63,0,0,0-8.38,2.84,11.93,11.93,0,0,0-4.3,7.9,11.48,11.48,0,0,0,2.77,8.85A10.82,10.82,0,0,0,562.52,491.25Z"/><path class="cls-3" d="M481.42,718.31a11.84,11.84,0,0,0,5.17,3.59,12.67,12.67,0,0,0,16.55-13.69v0c-.07-.47-.13-1-.19-1.42-.12-.89-.24-1.79-.41-2.69a34.16,34.16,0,0,0-1.94-6.48c-.68-1.72-1.42-3.42-2.16-5.12-.48-1.09-.95-2.18-1.42-3.3-2.48-5.9-5.18-11.62-7.95-17.45l-2.31-4.85c-1.94-4.06-3.88-8.12-5.76-12.22-3-6.48-5.83-13.07-8.45-19.23C469.1,627.33,465.7,619,462.4,611l-.28-.7c-2.26-5.53-4.21-10.12-6.11-14.45a87,87,0,0,0-8.3-14,10.47,10.47,0,0,0-7.48-4.39,12.47,12.47,0,0,0-9.28,2.68,12.15,12.15,0,0,0-4.34,7.89,11.34,11.34,0,0,0,2.16,8.09c.85,1.24,1.67,2.5,2.5,3.76l.05.08a51.8,51.8,0,0,1,3.19,6.1c1.65,3.85,2.87,6.8,3.95,9.57,1.42,3.63,2.81,7.26,4.21,10.89q1.54,4.07,3.12,8.11,1.45,3.74,2.89,7.49,1.92,5,3.87,10c2.42,6.13,5,12.38,7.87,19.1,1.17,2.73,2.35,5.44,3.54,8.16,2.16,4.94,4.39,10,6.44,15.09l1.58,3.93c1,2.43,2,4.86,3,7.28a76.75,76.75,0,0,0,6,12.06l.2.31Z"/></g></g></svg>