<svg width="342" height="255" viewBox="0 0 342 255" fill="none" xmlns="http://www.w3.org/2000/svg">
<g filter="url(#filter0_dddddd_161_2)">
<rect x="80" width="182" height="75" rx="37.5" fill="#F4BFBF"/>
</g>
<path d="M130.68 45.856C130.104 45.856 129.667 45.7067 129.368 45.408C129.069 45.1093 128.92 44.768 128.92 44.384C128.92 44 129.069 43.6587 129.368 43.36C129.667 43.0613 130.104 42.912 130.68 42.912C130.083 42.912 129.635 42.7733 129.336 42.496C129.037 42.1973 128.888 41.8667 128.888 41.504C128.888 41.1413 129.037 40.8213 129.336 40.544C129.635 40.2453 130.083 40.096 130.68 40.096C130.189 40.096 129.816 39.936 129.56 39.616C129.325 39.2747 129.208 38.88 129.208 38.432C129.208 37.984 129.325 37.6 129.56 37.28C129.816 36.9387 130.189 36.768 130.68 36.768C129.891 36.768 129.357 36.64 129.08 36.384C128.803 36.128 128.792 35.872 129.048 35.616C129.304 35.36 129.816 35.232 130.584 35.232C130.093 35.2533 129.699 35.1147 129.4 34.816C129.123 34.5173 128.941 34.1547 128.856 33.728C128.792 33.3013 128.835 32.9067 128.984 32.544C128.92 32.2453 128.888 31.904 128.888 31.52C128.888 31.9893 128.739 32.3627 128.44 32.64C128.141 32.9173 127.768 33.0987 127.32 33.184C126.893 33.2693 126.456 33.2693 126.008 33.184C125.581 33.0773 125.219 32.8853 124.92 32.608C124.643 32.3307 124.504 31.9573 124.504 31.488C123.949 31.488 123.533 31.3813 123.256 31.168C122.979 30.9333 122.84 30.6667 122.84 30.368C122.84 30.0693 122.979 29.8027 123.256 29.568C123.533 29.3333 123.949 29.216 124.504 29.216C123.843 29.216 123.395 29.056 123.16 28.736C122.947 28.3947 122.947 28.064 123.16 27.744C123.395 27.4027 123.843 27.232 124.504 27.232C123.395 26.7413 122.893 26.3893 123 26.176C123.085 25.9413 123.683 26.0693 124.792 26.56C124.792 25.856 124.909 25.3973 125.144 25.184C125.379 24.9493 125.613 24.9493 125.848 25.184C126.083 25.3973 126.2 25.856 126.2 26.56C126.2 25.9627 126.317 25.5147 126.552 25.216C126.808 24.9173 127.096 24.768 127.416 24.768C127.736 24.768 128.013 24.9173 128.248 25.216C128.504 25.5147 128.632 25.9627 128.632 26.56C128.632 26.0693 128.739 25.7067 128.952 25.472C129.187 25.216 129.453 25.088 129.752 25.088C130.072 25.088 130.339 25.216 130.552 25.472C130.787 25.7067 130.904 26.0693 130.904 26.56C130.904 25.792 131.075 25.2907 131.416 25.056C131.757 24.8 132.099 24.8 132.44 25.056C132.781 25.2907 132.952 25.792 132.952 26.56C132.952 26.0267 133.112 25.632 133.432 25.376C133.773 25.0987 134.157 24.96 134.584 24.96C135.032 24.96 135.427 25.0987 135.768 25.376C136.109 25.632 136.28 26.0267 136.28 26.56C136.28 25.9413 136.472 25.4827 136.856 25.184C137.24 24.864 137.677 24.704 138.168 24.704C138.68 24.704 139.128 24.864 139.512 25.184C139.896 25.4827 140.088 25.9413 140.088 26.56C140.088 26.0053 140.227 25.5893 140.504 25.312C140.803 25.0133 141.133 24.864 141.496 24.864C141.88 24.864 142.211 25.0133 142.488 25.312C142.765 25.5893 142.904 26.0053 142.904 26.56C143.501 26.5173 143.949 26.592 144.248 26.784C144.568 26.976 144.739 27.2213 144.76 27.52C144.781 27.7973 144.653 28.064 144.376 28.32C144.099 28.5547 143.661 28.6933 143.064 28.736C143.704 28.736 144.131 28.8853 144.344 29.184C144.557 29.4613 144.557 29.7493 144.344 30.048C144.131 30.3467 143.704 30.496 143.064 30.496C143.277 30.9013 143.341 31.264 143.256 31.584C143.171 31.904 143 32.128 142.744 32.256C142.488 32.384 142.2 32.4053 141.88 32.32C141.581 32.2133 141.325 31.9467 141.112 31.52C141.112 32.16 140.931 32.608 140.568 32.864C140.227 33.12 139.864 33.1947 139.48 33.088C139.459 33.4507 139.331 33.7813 139.096 34.08C138.883 34.3787 138.605 34.5707 138.264 34.656C138.776 34.8693 138.915 35.1253 138.68 35.424C138.445 35.7227 137.848 35.872 136.888 35.872C137.443 35.872 137.848 36.0533 138.104 36.416C138.381 36.7787 138.52 37.1947 138.52 37.664C138.52 38.1333 138.381 38.5493 138.104 38.912C137.848 39.2747 137.443 39.456 136.888 39.456C137.699 39.456 138.232 39.584 138.488 39.84C138.765 40.096 138.765 40.352 138.488 40.608C138.232 40.864 137.699 40.992 136.888 40.992C137.4 40.992 137.773 41.1093 138.008 41.344C138.264 41.5573 138.392 41.8027 138.392 42.08C138.392 42.3573 138.264 42.6133 138.008 42.848C137.773 43.0613 137.4 43.168 136.888 43.168C137.656 43.168 138.168 43.3173 138.424 43.616C138.68 43.9147 138.68 44.2133 138.424 44.512C138.168 44.8107 137.656 44.96 136.888 44.96C137.656 44.96 138.157 45.0667 138.392 45.28C138.648 45.4933 138.648 45.7067 138.392 45.92C138.157 46.1333 137.656 46.24 136.888 46.24C136.995 46.7093 136.909 47.104 136.632 47.424C136.376 47.744 136.035 47.9573 135.608 48.064C135.181 48.1707 134.776 48.1493 134.392 48C134.008 47.8293 133.763 47.5093 133.656 47.04C133.656 47.6373 133.496 48.0853 133.176 48.384C132.877 48.6827 132.525 48.7893 132.12 48.704C131.736 48.64 131.395 48.3733 131.096 47.904C130.797 47.4347 130.659 46.752 130.68 45.856ZM147.283 46.88C146.856 46.88 146.504 46.72 146.227 46.4C145.971 46.0587 145.8 45.6427 145.715 45.152C145.629 44.64 145.629 44.1387 145.715 43.648C145.8 43.1573 145.971 42.752 146.227 42.432C146.504 42.0907 146.856 41.92 147.283 41.92C146.877 41.92 146.547 41.76 146.291 41.44C146.056 41.12 145.896 40.7253 145.811 40.256C145.747 39.7867 145.747 39.3173 145.811 38.848C145.896 38.3787 146.056 37.984 146.291 37.664C146.547 37.344 146.877 37.184 147.283 37.184C146.643 37.184 146.163 37.0773 145.843 36.864C145.544 36.6293 145.395 36.3733 145.395 36.096C145.395 35.8187 145.544 35.5733 145.843 35.36C146.163 35.1253 146.643 35.008 147.283 35.008C146.877 35.008 146.557 34.848 146.323 34.528C146.088 34.208 145.928 33.8133 145.843 33.344C145.779 32.8747 145.779 32.4053 145.843 31.936C145.928 31.4667 146.088 31.0827 146.323 30.784C146.557 30.464 146.877 30.304 147.283 30.304C146.451 30.304 145.885 30.1653 145.587 29.888C145.309 29.6107 145.309 29.3333 145.587 29.056C145.885 28.7787 146.451 28.64 147.283 28.64C146.984 28.32 146.856 27.9787 146.899 27.616C146.963 27.2533 147.133 26.944 147.411 26.688C147.688 26.4107 148.008 26.2507 148.371 26.208C148.733 26.144 149.064 26.2613 149.363 26.56C149.363 25.984 149.491 25.5573 149.747 25.28C150.024 24.9813 150.344 24.832 150.707 24.832C151.069 24.832 151.379 24.9813 151.635 25.28C151.912 25.5573 152.051 25.984 152.051 26.56C152.456 26.2613 152.84 26.1547 153.203 26.24C153.565 26.304 153.853 26.4853 154.067 26.784C154.28 27.0613 154.355 27.392 154.291 27.776C154.248 28.1387 154.024 28.4693 153.619 28.768C154.131 28.768 154.515 28.928 154.771 29.248C155.048 29.5467 155.187 29.8987 155.187 30.304C155.187 30.7093 155.048 31.0613 154.771 31.36C154.515 31.6587 154.131 31.808 153.619 31.808C154.429 31.808 154.963 31.9147 155.219 32.128C155.496 32.3413 155.496 32.5547 155.219 32.768C154.963 32.9813 154.429 33.088 153.619 33.088C154.109 33.088 154.472 33.216 154.707 33.472C154.941 33.7067 155.059 33.984 155.059 34.304C155.059 34.624 154.941 34.912 154.707 35.168C154.472 35.4027 154.109 35.52 153.619 35.52C154.237 35.52 154.696 35.712 154.995 36.096C155.315 36.4587 155.475 36.8853 155.475 37.376C155.475 37.8667 155.315 38.304 154.995 38.688C154.696 39.0507 154.237 39.232 153.619 39.232C154.365 39.232 154.856 39.3707 155.091 39.648C155.347 39.9253 155.347 40.2027 155.091 40.48C154.856 40.7573 154.365 40.896 153.619 40.896C154.024 40.896 154.344 41.056 154.579 41.376C154.835 41.6747 154.995 42.0587 155.059 42.528C155.144 42.9973 155.144 43.4667 155.059 43.936C154.995 44.4053 154.835 44.8 154.579 45.12C154.344 45.44 154.024 45.6 153.619 45.6C153.853 45.9413 153.917 46.272 153.811 46.592C153.725 46.8907 153.544 47.136 153.267 47.328C152.989 47.52 152.691 47.6053 152.371 47.584C152.051 47.5627 151.773 47.3813 151.539 47.04C151.539 47.4667 151.389 47.7973 151.091 48.032C150.813 48.288 150.451 48.4587 150.003 48.544C149.576 48.6293 149.149 48.6187 148.723 48.512C148.296 48.4267 147.944 48.2453 147.667 47.968C147.389 47.6907 147.261 47.328 147.283 46.88ZM164.024 45.856C163.448 45.856 163.01 45.7067 162.712 45.408C162.413 45.1093 162.264 44.768 162.264 44.384C162.264 44 162.413 43.6587 162.712 43.36C163.01 43.0613 163.448 42.912 164.024 42.912C163.426 42.912 162.978 42.7733 162.68 42.496C162.381 42.1973 162.232 41.8667 162.232 41.504C162.232 41.1413 162.381 40.8213 162.68 40.544C162.978 40.2453 163.426 40.096 164.024 40.096C163.533 40.096 163.16 39.936 162.904 39.616C162.669 39.2747 162.552 38.88 162.552 38.432C162.552 37.984 162.669 37.6 162.904 37.28C163.16 36.9387 163.533 36.768 164.024 36.768C163.234 36.768 162.701 36.64 162.424 36.384C162.146 36.128 162.136 35.872 162.392 35.616C162.648 35.36 163.16 35.232 163.928 35.232C163.437 35.2533 163.042 35.1147 162.744 34.816C162.466 34.5173 162.285 34.1547 162.2 33.728C162.136 33.3013 162.178 32.9067 162.328 32.544C162.264 32.2453 162.232 31.904 162.232 31.52C162.232 31.9893 162.082 32.3627 161.784 32.64C161.485 32.9173 161.112 33.0987 160.664 33.184C160.237 33.2693 159.8 33.2693 159.352 33.184C158.925 33.0773 158.562 32.8853 158.264 32.608C157.986 32.3307 157.848 31.9573 157.848 31.488C157.293 31.488 156.877 31.3813 156.6 31.168C156.322 30.9333 156.184 30.6667 156.184 30.368C156.184 30.0693 156.322 29.8027 156.6 29.568C156.877 29.3333 157.293 29.216 157.848 29.216C157.186 29.216 156.738 29.056 156.504 28.736C156.29 28.3947 156.29 28.064 156.504 27.744C156.738 27.4027 157.186 27.232 157.848 27.232C156.738 26.7413 156.237 26.3893 156.344 26.176C156.429 25.9413 157.026 26.0693 158.136 26.56C158.136 25.856 158.253 25.3973 158.488 25.184C158.722 24.9493 158.957 24.9493 159.192 25.184C159.426 25.3973 159.544 25.856 159.544 26.56C159.544 25.9627 159.661 25.5147 159.896 25.216C160.152 24.9173 160.44 24.768 160.76 24.768C161.08 24.768 161.357 24.9173 161.592 25.216C161.848 25.5147 161.976 25.9627 161.976 26.56C161.976 26.0693 162.082 25.7067 162.296 25.472C162.53 25.216 162.797 25.088 163.096 25.088C163.416 25.088 163.682 25.216 163.896 25.472C164.13 25.7067 164.248 26.0693 164.248 26.56C164.248 25.792 164.418 25.2907 164.76 25.056C165.101 24.8 165.442 24.8 165.784 25.056C166.125 25.2907 166.296 25.792 166.296 26.56C166.296 26.0267 166.456 25.632 166.776 25.376C167.117 25.0987 167.501 24.96 167.928 24.96C168.376 24.96 168.77 25.0987 169.112 25.376C169.453 25.632 169.624 26.0267 169.624 26.56C169.624 25.9413 169.816 25.4827 170.2 25.184C170.584 24.864 171.021 24.704 171.512 24.704C172.024 24.704 172.472 24.864 172.856 25.184C173.24 25.4827 173.432 25.9413 173.432 26.56C173.432 26.0053 173.57 25.5893 173.848 25.312C174.146 25.0133 174.477 24.864 174.84 24.864C175.224 24.864 175.554 25.0133 175.832 25.312C176.109 25.5893 176.248 26.0053 176.248 26.56C176.845 26.5173 177.293 26.592 177.592 26.784C177.912 26.976 178.082 27.2213 178.104 27.52C178.125 27.7973 177.997 28.064 177.72 28.32C177.442 28.5547 177.005 28.6933 176.408 28.736C177.048 28.736 177.474 28.8853 177.688 29.184C177.901 29.4613 177.901 29.7493 177.688 30.048C177.474 30.3467 177.048 30.496 176.408 30.496C176.621 30.9013 176.685 31.264 176.6 31.584C176.514 31.904 176.344 32.128 176.088 32.256C175.832 32.384 175.544 32.4053 175.224 32.32C174.925 32.2133 174.669 31.9467 174.456 31.52C174.456 32.16 174.274 32.608 173.912 32.864C173.57 33.12 173.208 33.1947 172.824 33.088C172.802 33.4507 172.674 33.7813 172.44 34.08C172.226 34.3787 171.949 34.5707 171.608 34.656C172.12 34.8693 172.258 35.1253 172.024 35.424C171.789 35.7227 171.192 35.872 170.232 35.872C170.786 35.872 171.192 36.0533 171.448 36.416C171.725 36.7787 171.864 37.1947 171.864 37.664C171.864 38.1333 171.725 38.5493 171.448 38.912C171.192 39.2747 170.786 39.456 170.232 39.456C171.042 39.456 171.576 39.584 171.832 39.84C172.109 40.096 172.109 40.352 171.832 40.608C171.576 40.864 171.042 40.992 170.232 40.992C170.744 40.992 171.117 41.1093 171.352 41.344C171.608 41.5573 171.736 41.8027 171.736 42.08C171.736 42.3573 171.608 42.6133 171.352 42.848C171.117 43.0613 170.744 43.168 170.232 43.168C171 43.168 171.512 43.3173 171.768 43.616C172.024 43.9147 172.024 44.2133 171.768 44.512C171.512 44.8107 171 44.96 170.232 44.96C171 44.96 171.501 45.0667 171.736 45.28C171.992 45.4933 171.992 45.7067 171.736 45.92C171.501 46.1333 171 46.24 170.232 46.24C170.338 46.7093 170.253 47.104 169.976 47.424C169.72 47.744 169.378 47.9573 168.952 48.064C168.525 48.1707 168.12 48.1493 167.736 48C167.352 47.8293 167.106 47.5093 167 47.04C167 47.6373 166.84 48.0853 166.52 48.384C166.221 48.6827 165.869 48.7893 165.464 48.704C165.08 48.64 164.738 48.3733 164.44 47.904C164.141 47.4347 164.002 46.752 164.024 45.856Z" fill="white"/>
<path d="M180.626 43.168C179.858 43.168 179.346 43.0613 179.09 42.848C178.834 42.6347 178.834 42.432 179.09 42.24C179.346 42.0267 179.858 41.92 180.626 41.92C180.029 41.92 179.581 41.7813 179.282 41.504C178.984 41.2267 178.834 40.9173 178.834 40.576C178.834 40.2133 178.984 39.904 179.282 39.648C179.581 39.3707 180.029 39.232 180.626 39.232C180.05 39.232 179.624 39.1147 179.346 38.88C179.069 38.6453 178.93 38.3787 178.93 38.08C178.93 37.7813 179.069 37.5147 179.346 37.28C179.624 37.0453 180.05 36.928 180.626 36.928C180.114 36.928 179.72 36.768 179.442 36.448C179.186 36.128 179.058 35.7547 179.058 35.328C179.058 34.9013 179.186 34.528 179.442 34.208C179.72 33.888 180.114 33.728 180.626 33.728C179.88 33.728 179.378 33.5787 179.122 33.28C178.866 32.9813 178.866 32.6827 179.122 32.384C179.378 32.0853 179.88 31.936 180.626 31.936C179.986 31.936 179.506 31.808 179.186 31.552C178.888 31.2747 178.738 30.9653 178.738 30.624C178.738 30.2613 178.888 29.952 179.186 29.696C179.506 29.4187 179.986 29.28 180.626 29.28C180.264 29.1093 180.05 28.8533 179.986 28.512C179.922 28.1493 179.965 27.7973 180.114 27.456C180.285 27.0933 180.52 26.816 180.818 26.624C181.117 26.432 181.448 26.4107 181.81 26.56C181.81 26.048 181.97 25.6747 182.29 25.44C182.61 25.184 182.984 25.056 183.41 25.056C183.837 25.056 184.21 25.184 184.53 25.44C184.85 25.6747 185.01 26.048 185.01 26.56C185.245 26.24 185.512 26.0693 185.81 26.048C186.109 26.0053 186.376 26.0693 186.61 26.24C186.845 26.4107 186.994 26.6453 187.058 26.944C187.144 27.2427 187.069 27.552 186.834 27.872C187.389 27.872 187.805 28.064 188.082 28.448C188.381 28.8107 188.53 29.2373 188.53 29.728C188.53 30.1973 188.381 30.624 188.082 31.008C187.805 31.3707 187.389 31.552 186.834 31.552C187.368 31.552 187.762 31.7333 188.018 32.096C188.296 32.4587 188.434 32.8747 188.434 33.344C188.434 33.8133 188.296 34.2293 188.018 34.592C187.762 34.9547 187.368 35.136 186.834 35.136C187.56 35.136 188.04 35.2427 188.274 35.456C188.509 35.6693 188.509 35.8827 188.274 36.096C188.04 36.3093 187.56 36.416 186.834 36.416C187.56 36.416 188.061 36.5547 188.338 36.832C188.616 37.1093 188.658 37.408 188.466 37.728C188.296 38.0267 187.901 38.2187 187.282 38.304C187.858 38.3253 188.296 38.592 188.594 39.104C188.914 39.616 189.053 40.1387 189.01 40.672C189.437 40.5653 189.874 40.5547 190.322 40.64C190.77 40.7253 191.144 40.9173 191.442 41.216C191.762 41.5147 191.922 41.9093 191.922 42.4C191.922 41.9307 192.072 41.5573 192.37 41.28C192.69 41.0027 193.064 40.8213 193.49 40.736C193.938 40.6507 194.386 40.6507 194.834 40.736C195.282 40.8213 195.656 41.0027 195.954 41.28C196.253 41.5573 196.402 41.9307 196.402 42.4C196.957 42.3573 197.384 42.4427 197.682 42.656C197.981 42.8693 198.141 43.136 198.162 43.456C198.184 43.7547 198.056 44.032 197.778 44.288C197.522 44.544 197.117 44.6827 196.562 44.704C196.904 45.024 197.053 45.376 197.01 45.76C196.989 46.144 196.84 46.496 196.562 46.816C196.285 47.1147 195.954 47.3067 195.57 47.392C195.186 47.456 194.824 47.3387 194.482 47.04C194.482 47.552 194.301 47.9253 193.938 48.16C193.576 48.416 193.16 48.544 192.69 48.544C192.221 48.544 191.805 48.416 191.442 48.16C191.08 47.9253 190.898 47.552 190.898 47.04C190.898 47.5733 190.696 47.9787 190.29 48.256C189.906 48.5333 189.448 48.672 188.914 48.672C188.381 48.672 187.912 48.5333 187.506 48.256C187.122 47.9787 186.93 47.5733 186.93 47.04C186.93 47.5733 186.738 47.9787 186.354 48.256C185.97 48.5333 185.522 48.672 185.01 48.672C184.498 48.672 184.05 48.5333 183.666 48.256C183.282 47.9787 183.09 47.5733 183.09 47.04C183.09 47.68 182.962 48.128 182.706 48.384C182.45 48.6613 182.152 48.6827 181.81 48.448C181.49 48.2133 181.202 47.68 180.946 46.848C180.712 45.9947 180.605 44.768 180.626 43.168ZM200.658 43.936C200.146 43.936 199.751 43.7653 199.474 43.424C199.218 43.0613 199.09 42.6453 199.09 42.176C199.09 41.6853 199.218 41.2693 199.474 40.928C199.751 40.5653 200.146 40.384 200.658 40.384C200.146 40.384 199.762 40.2453 199.506 39.968C199.271 39.6907 199.154 39.3813 199.154 39.04C199.154 38.6773 199.271 38.368 199.506 38.112C199.762 37.8347 200.146 37.696 200.658 37.696C199.868 37.696 199.335 37.536 199.058 37.216C198.802 36.896 198.802 36.576 199.058 36.256C199.335 35.936 199.868 35.776 200.658 35.776C200.124 35.776 199.719 35.648 199.442 35.392C199.164 35.136 199.026 34.8373 199.026 34.496C199.026 34.1547 199.164 33.856 199.442 33.6C199.719 33.344 200.124 33.216 200.658 33.216C200.06 33.216 199.612 33.024 199.314 32.64C199.036 32.256 198.898 31.8187 198.898 31.328C198.898 30.816 199.036 30.368 199.314 29.984C199.612 29.6 200.06 29.408 200.658 29.408C200.252 29.28 199.996 29.0453 199.89 28.704C199.804 28.3413 199.815 27.9787 199.922 27.616C200.05 27.232 200.252 26.9333 200.53 26.72C200.828 26.4853 201.18 26.432 201.586 26.56C201.586 25.8987 201.703 25.4613 201.938 25.248C202.172 25.0347 202.407 25.0347 202.641 25.248C202.876 25.4613 202.994 25.8987 202.994 26.56C202.994 26.176 203.154 25.8667 203.474 25.632C203.794 25.3973 204.188 25.248 204.658 25.184C205.148 25.0987 205.628 25.0987 206.098 25.184C206.588 25.248 206.994 25.3973 207.314 25.632C207.655 25.8667 207.826 26.176 207.826 26.56C207.826 25.8773 207.986 25.4293 208.306 25.216C208.647 24.9813 208.988 24.9813 209.33 25.216C209.671 25.4293 209.842 25.8773 209.842 26.56C209.842 25.984 209.98 25.5573 210.258 25.28C210.535 25.0027 210.844 24.864 211.186 24.864C211.548 24.864 211.858 25.0027 212.114 25.28C212.391 25.5573 212.53 25.984 212.53 26.56C212.53 26.176 212.679 25.8667 212.978 25.632C213.276 25.3973 213.639 25.248 214.066 25.184C214.514 25.0987 214.962 25.0987 215.41 25.184C215.858 25.248 216.231 25.3973 216.53 25.632C216.828 25.8667 216.978 26.176 216.978 26.56C217.618 26.624 218.034 26.7627 218.226 26.976C218.439 27.168 218.428 27.36 218.194 27.552C217.959 27.7227 217.522 27.776 216.882 27.712C217.436 27.776 217.842 27.9787 218.098 28.32C218.354 28.6613 218.46 29.0453 218.418 29.472C218.375 29.8773 218.194 30.2293 217.874 30.528C217.575 30.8053 217.148 30.9227 216.594 30.88C216.594 31.5627 216.476 32.0213 216.242 32.256C216.007 32.4693 215.772 32.4693 215.538 32.256C215.303 32.0213 215.186 31.5627 215.186 30.88C215.186 31.52 215.015 31.9573 214.674 32.192C214.354 32.4053 214.023 32.4053 213.682 32.192C213.34 31.9573 213.17 31.52 213.17 30.88C213.17 31.2 213.01 31.456 212.69 31.648C212.37 31.84 211.975 31.9573 211.506 32C211.058 32.0427 210.61 32.032 210.162 31.968C209.714 31.8827 209.372 31.7227 209.138 31.488C209.18 31.744 209.159 31.9893 209.074 32.224C208.988 32.4587 208.85 32.6613 208.658 32.832C208.914 33.0027 209.116 33.216 209.266 33.472C209.436 33.7067 209.532 33.9627 209.554 34.24C209.724 33.984 209.98 33.8133 210.322 33.728C210.663 33.6213 211.015 33.5893 211.378 33.632C211.74 33.6747 212.05 33.8027 212.306 34.016C212.562 34.208 212.69 34.4747 212.69 34.816C212.69 34.3467 212.807 33.9947 213.042 33.76C213.298 33.5253 213.586 33.408 213.906 33.408C214.226 33.408 214.503 33.5253 214.738 33.76C214.994 33.9947 215.122 34.3467 215.122 34.816C215.378 34.1547 215.634 33.7493 215.89 33.6C216.146 33.4507 216.316 33.5253 216.402 33.824C216.508 34.1013 216.434 34.5707 216.178 35.232C216.775 35.2747 217.202 35.488 217.458 35.872C217.735 36.256 217.852 36.6827 217.81 37.152C217.767 37.6213 217.586 38.0267 217.266 38.368C216.946 38.688 216.487 38.8267 215.89 38.784C215.89 39.104 215.73 39.36 215.41 39.552C215.111 39.744 214.727 39.872 214.258 39.936C213.81 40 213.351 40 212.882 39.936C212.434 39.872 212.05 39.744 211.73 39.552C211.431 39.36 211.282 39.104 211.282 38.784C211.282 39.2107 211.122 39.52 210.802 39.712C210.482 39.904 210.13 39.9787 209.746 39.936C209.383 39.8933 209.106 39.7227 208.914 39.424C208.892 39.68 208.807 39.904 208.658 40.096C208.53 40.288 208.37 40.4373 208.178 40.544C208.412 40.7573 208.519 41.0133 208.498 41.312C208.754 41.376 208.978 41.5253 209.17 41.76C209.362 41.9947 209.458 42.3147 209.458 42.72C209.458 42.336 209.66 42.048 210.066 41.856C210.492 41.6427 210.972 41.536 211.506 41.536C212.039 41.536 212.508 41.6427 212.914 41.856C213.34 42.048 213.554 42.336 213.554 42.72C213.554 42.0587 213.714 41.6213 214.034 41.408C214.354 41.1947 214.663 41.1947 214.962 41.408C215.282 41.6213 215.442 42.0587 215.442 42.72C215.74 42.2933 216.082 42.1013 216.466 42.144C216.85 42.1867 217.127 42.3787 217.298 42.72C217.49 43.0613 217.436 43.4453 217.138 43.872C217.586 44.0427 217.863 44.3307 217.97 44.736C218.076 45.1413 218.055 45.5573 217.906 45.984C217.756 46.3893 217.5 46.7093 217.138 46.944C216.796 47.1787 216.402 47.2107 215.954 47.04C215.954 47.616 215.826 48.0427 215.569 48.32C215.335 48.6187 215.058 48.768 214.738 48.768C214.418 48.768 214.14 48.6187 213.906 48.32C213.671 48.0427 213.554 47.616 213.554 47.04C213.554 47.6373 213.372 48.0747 213.01 48.352C212.668 48.6507 212.274 48.8 211.826 48.8C211.378 48.8 210.972 48.6507 210.61 48.352C210.268 48.0747 210.098 47.6373 210.098 47.04C210.098 47.5733 209.959 47.968 209.682 48.224C209.404 48.5013 209.074 48.64 208.69 48.64C208.327 48.64 208.007 48.5013 207.73 48.224C207.452 47.968 207.314 47.5733 207.314 47.04C207.314 47.6587 207.132 48.1173 206.77 48.416C206.428 48.736 206.034 48.896 205.586 48.896C205.138 48.896 204.732 48.736 204.37 48.416C204.028 48.1173 203.858 47.6587 203.858 47.04C203.858 47.5733 203.687 47.9467 203.346 48.16C203.026 48.3947 202.652 48.416 202.226 48.224C201.799 48.0533 201.426 47.6267 201.106 46.944C200.786 46.24 200.636 45.2373 200.658 43.936Z" fill="#FAF0D7"/>
<defs>
<filter id="filter0_dddddd_161_2" x="0" y="0" width="342" height="255" filterUnits="userSpaceOnUse" color-interpolation-filters="sRGB">
<feFlood flood-opacity="0" result="BackgroundImageFix"/>
<feColorMatrix in="SourceAlpha" type="matrix" values="0 0 0 0 0 0 0 0 0 0 0 0 0 0 0 0 0 0 127 0" result="hardAlpha"/>
<feOffset dy="2.76726"/>
<feGaussianBlur stdDeviation="1.1069"/>
<feColorMatrix type="matrix" values="0 0 0 0 0 0 0 0 0 0 0 0 0 0 0 0 0 0 0.0196802 0"/>
<feBlend mode="normal" in2="BackgroundImageFix" result="effect1_dropShadow_161_2"/>
<feColorMatrix in="SourceAlpha" type="matrix" values="0 0 0 0 0 0 0 0 0 0 0 0 0 0 0 0 0 0 127 0" result="hardAlpha"/>
<feOffset dy="6.6501"/>
<feGaussianBlur stdDeviation="2.66004"/>
<feColorMatrix type="matrix" values="0 0 0 0 0 0 0 0 0 0 0 0 0 0 0 0 0 0 0.0282725 0"/>
<feBlend mode="normal" in2="effect1_dropShadow_161_2" result="effect2_dropShadow_161_2"/>
<feColorMatrix in="SourceAlpha" type="matrix" values="0 0 0 0 0 0 0 0 0 0 0 0 0 0 0 0 0 0 127 0" result="hardAlpha"/>
<feOffset dy="12.5216"/>
<feGaussianBlur stdDeviation="5.00862"/>
<feColorMatrix type="matrix" values="0 0 0 0 0 0 0 0 0 0 0 0 0 0 0 0 0 0 0.035 0"/>
<feBlend mode="normal" in2="effect2_dropShadow_161_2" result="effect3_dropShadow_161_2"/>
<feColorMatrix in="SourceAlpha" type="matrix" values="0 0 0 0 0 0 0 0 0 0 0 0 0 0 0 0 0 0 127 0" result="hardAlpha"/>
<feOffset dy="22.3363"/>
<feGaussianBlur stdDeviation="8.93452"/>
<feColorMatrix type="matrix" values="0 0 0 0 0 0 0 0 0 0 0 0 0 0 0 0 0 0 0.0417275 0"/>
<feBlend mode="normal" in2="effect3_dropShadow_161_2" result="effect4_dropShadow_161_2"/>
<feColorMatrix in="SourceAlpha" type="matrix" values="0 0 0 0 0 0 0 0 0 0 0 0 0 0 0 0 0 0 127 0" result="hardAlpha"/>
<feOffset dy="41.7776"/>
<feGaussianBlur stdDeviation="16.711"/>
<feColorMatrix type="matrix" values="0 0 0 0 0 0 0 0 0 0 0 0 0 0 0 0 0 0 0.0503198 0"/>
<feBlend mode="normal" in2="effect4_dropShadow_161_2" result="effect5_dropShadow_161_2"/>
<feColorMatrix in="SourceAlpha" type="matrix" values="0 0 0 0 0 0 0 0 0 0 0 0 0 0 0 0 0 0 127 0" result="hardAlpha"/>
<feOffset dy="100"/>
<feGaussianBlur stdDeviation="40"/>
<feColorMatrix type="matrix" values="0 0 0 0 0 0 0 0 0 0 0 0 0 0 0 0 0 0 0.07 0"/>
<feBlend mode="normal" in2="effect5_dropShadow_161_2" result="effect6_dropShadow_161_2"/>
<feBlend mode="normal" in="SourceGraphic" in2="effect6_dropShadow_161_2" result="shape"/>
</filter>
</defs>
</svg>
