<svg width="182" height="75" viewBox="0 0 182 75" fill="none" xmlns="http://www.w3.org/2000/svg">
<rect width="182" height="75" rx="37.5" fill="#F4BFBF"/>
<path d="M50.68 45.856C50.104 45.856 49.6667 45.7067 49.368 45.408C49.0693 45.1093 48.92 44.768 48.92 44.384C48.92 44 49.0693 43.6587 49.368 43.36C49.6667 43.0613 50.104 42.912 50.68 42.912C50.0827 42.912 49.6347 42.7733 49.336 42.496C49.0373 42.1973 48.888 41.8667 48.888 41.504C48.888 41.1413 49.0373 40.8213 49.336 40.544C49.6347 40.2453 50.0827 40.096 50.68 40.096C50.1893 40.096 49.816 39.936 49.56 39.616C49.3253 39.2747 49.208 38.88 49.208 38.432C49.208 37.984 49.3253 37.6 49.56 37.28C49.816 36.9387 50.1893 36.768 50.68 36.768C49.8907 36.768 49.3573 36.64 49.08 36.384C48.8027 36.128 48.792 35.872 49.048 35.616C49.304 35.36 49.816 35.232 50.584 35.232C50.0933 35.2533 49.6987 35.1147 49.4 34.816C49.1227 34.5173 48.9413 34.1547 48.856 33.728C48.792 33.3013 48.8347 32.9067 48.984 32.544C48.92 32.2453 48.888 31.904 48.888 31.52C48.888 31.9893 48.7387 32.3627 48.44 32.64C48.1413 32.9173 47.768 33.0987 47.32 33.184C46.8933 33.2693 46.456 33.2693 46.008 33.184C45.5813 33.0773 45.2187 32.8853 44.92 32.608C44.6427 32.3307 44.504 31.9573 44.504 31.488C43.9493 31.488 43.5333 31.3813 43.256 31.168C42.9787 30.9333 42.84 30.6667 42.84 30.368C42.84 30.0693 42.9787 29.8027 43.256 29.568C43.5333 29.3333 43.9493 29.216 44.504 29.216C43.8427 29.216 43.3947 29.056 43.16 28.736C42.9467 28.3947 42.9467 28.064 43.16 27.744C43.3947 27.4027 43.8427 27.232 44.504 27.232C43.3947 26.7413 42.8933 26.3893 43 26.176C43.0853 25.9413 43.6827 26.0693 44.792 26.56C44.792 25.856 44.9093 25.3973 45.144 25.184C45.3787 24.9493 45.6133 24.9493 45.848 25.184C46.0827 25.3973 46.2 25.856 46.2 26.56C46.2 25.9627 46.3173 25.5147 46.552 25.216C46.808 24.9173 47.096 24.768 47.416 24.768C47.736 24.768 48.0133 24.9173 48.248 25.216C48.504 25.5147 48.632 25.9627 48.632 26.56C48.632 26.0693 48.7387 25.7067 48.952 25.472C49.1867 25.216 49.4533 25.088 49.752 25.088C50.072 25.088 50.3387 25.216 50.552 25.472C50.7867 25.7067 50.904 26.0693 50.904 26.56C50.904 25.792 51.0747 25.2907 51.416 25.056C51.7573 24.8 52.0987 24.8 52.44 25.056C52.7813 25.2907 52.952 25.792 52.952 26.56C52.952 26.0267 53.112 25.632 53.432 25.376C53.7733 25.0987 54.1573 24.96 54.584 24.96C55.032 24.96 55.4267 25.0987 55.768 25.376C56.1093 25.632 56.28 26.0267 56.28 26.56C56.28 25.9413 56.472 25.4827 56.856 25.184C57.24 24.864 57.6773 24.704 58.168 24.704C58.68 24.704 59.128 24.864 59.512 25.184C59.896 25.4827 60.088 25.9413 60.088 26.56C60.088 26.0053 60.2267 25.5893 60.504 25.312C60.8027 25.0133 61.1333 24.864 61.496 24.864C61.88 24.864 62.2107 25.0133 62.488 25.312C62.7653 25.5893 62.904 26.0053 62.904 26.56C63.5013 26.5173 63.9493 26.592 64.248 26.784C64.568 26.976 64.7387 27.2213 64.76 27.52C64.7813 27.7973 64.6533 28.064 64.376 28.32C64.0987 28.5547 63.6613 28.6933 63.064 28.736C63.704 28.736 64.1307 28.8853 64.344 29.184C64.5573 29.4613 64.5573 29.7493 64.344 30.048C64.1307 30.3467 63.704 30.496 63.064 30.496C63.2773 30.9013 63.3413 31.264 63.256 31.584C63.1707 31.904 63 32.128 62.744 32.256C62.488 32.384 62.2 32.4053 61.88 32.32C61.5813 32.2133 61.3253 31.9467 61.112 31.52C61.112 32.16 60.9307 32.608 60.568 32.864C60.2267 33.12 59.864 33.1947 59.48 33.088C59.4587 33.4507 59.3307 33.7813 59.096 34.08C58.8827 34.3787 58.6053 34.5707 58.264 34.656C58.776 34.8693 58.9147 35.1253 58.68 35.424C58.4453 35.7227 57.848 35.872 56.888 35.872C57.4427 35.872 57.848 36.0533 58.104 36.416C58.3813 36.7787 58.52 37.1947 58.52 37.664C58.52 38.1333 58.3813 38.5493 58.104 38.912C57.848 39.2747 57.4427 39.456 56.888 39.456C57.6987 39.456 58.232 39.584 58.488 39.84C58.7653 40.096 58.7653 40.352 58.488 40.608C58.232 40.864 57.6987 40.992 56.888 40.992C57.4 40.992 57.7733 41.1093 58.008 41.344C58.264 41.5573 58.392 41.8027 58.392 42.08C58.392 42.3573 58.264 42.6133 58.008 42.848C57.7733 43.0613 57.4 43.168 56.888 43.168C57.656 43.168 58.168 43.3173 58.424 43.616C58.68 43.9147 58.68 44.2133 58.424 44.512C58.168 44.8107 57.656 44.96 56.888 44.96C57.656 44.96 58.1573 45.0667 58.392 45.28C58.648 45.4933 58.648 45.7067 58.392 45.92C58.1573 46.1333 57.656 46.24 56.888 46.24C56.9947 46.7093 56.9093 47.104 56.632 47.424C56.376 47.744 56.0347 47.9573 55.608 48.064C55.1813 48.1707 54.776 48.1493 54.392 48C54.008 47.8293 53.7627 47.5093 53.656 47.04C53.656 47.6373 53.496 48.0853 53.176 48.384C52.8773 48.6827 52.5253 48.7893 52.12 48.704C51.736 48.64 51.3947 48.3733 51.096 47.904C50.7973 47.4347 50.6587 46.752 50.68 45.856ZM67.2825 46.88C66.8558 46.88 66.5038 46.72 66.2265 46.4C65.9705 46.0587 65.7998 45.6427 65.7145 45.152C65.6292 44.64 65.6292 44.1387 65.7145 43.648C65.7998 43.1573 65.9705 42.752 66.2265 42.432C66.5038 42.0907 66.8558 41.92 67.2825 41.92C66.8772 41.92 66.5465 41.76 66.2905 41.44C66.0558 41.12 65.8958 40.7253 65.8105 40.256C65.7465 39.7867 65.7465 39.3173 65.8105 38.848C65.8958 38.3787 66.0558 37.984 66.2905 37.664C66.5465 37.344 66.8772 37.184 67.2825 37.184C66.6425 37.184 66.1625 37.0773 65.8425 36.864C65.5438 36.6293 65.3945 36.3733 65.3945 36.096C65.3945 35.8187 65.5438 35.5733 65.8425 35.36C66.1625 35.1253 66.6425 35.008 67.2825 35.008C66.8772 35.008 66.5572 34.848 66.3225 34.528C66.0878 34.208 65.9278 33.8133 65.8425 33.344C65.7785 32.8747 65.7785 32.4053 65.8425 31.936C65.9278 31.4667 66.0878 31.0827 66.3225 30.784C66.5572 30.464 66.8772 30.304 67.2825 30.304C66.4505 30.304 65.8852 30.1653 65.5865 29.888C65.3092 29.6107 65.3092 29.3333 65.5865 29.056C65.8852 28.7787 66.4505 28.64 67.2825 28.64C66.9838 28.32 66.8558 27.9787 66.8985 27.616C66.9625 27.2533 67.1332 26.944 67.4105 26.688C67.6878 26.4107 68.0078 26.2507 68.3705 26.208C68.7332 26.144 69.0638 26.2613 69.3625 26.56C69.3625 25.984 69.4905 25.5573 69.7465 25.28C70.0238 24.9813 70.3438 24.832 70.7065 24.832C71.0692 24.832 71.3785 24.9813 71.6345 25.28C71.9118 25.5573 72.0505 25.984 72.0505 26.56C72.4558 26.2613 72.8398 26.1547 73.2025 26.24C73.5652 26.304 73.8532 26.4853 74.0665 26.784C74.2798 27.0613 74.3545 27.392 74.2905 27.776C74.2478 28.1387 74.0238 28.4693 73.6185 28.768C74.1305 28.768 74.5145 28.928 74.7705 29.248C75.0478 29.5467 75.1865 29.8987 75.1865 30.304C75.1865 30.7093 75.0478 31.0613 74.7705 31.36C74.5145 31.6587 74.1305 31.808 73.6185 31.808C74.4292 31.808 74.9625 31.9147 75.2185 32.128C75.4958 32.3413 75.4958 32.5547 75.2185 32.768C74.9625 32.9813 74.4292 33.088 73.6185 33.088C74.1092 33.088 74.4718 33.216 74.7065 33.472C74.9412 33.7067 75.0585 33.984 75.0585 34.304C75.0585 34.624 74.9412 34.912 74.7065 35.168C74.4718 35.4027 74.1092 35.52 73.6185 35.52C74.2372 35.52 74.6958 35.712 74.9945 36.096C75.3145 36.4587 75.4745 36.8853 75.4745 37.376C75.4745 37.8667 75.3145 38.304 74.9945 38.688C74.6958 39.0507 74.2372 39.232 73.6185 39.232C74.3652 39.232 74.8558 39.3707 75.0905 39.648C75.3465 39.9253 75.3465 40.2027 75.0905 40.48C74.8558 40.7573 74.3652 40.896 73.6185 40.896C74.0238 40.896 74.3438 41.056 74.5785 41.376C74.8345 41.6747 74.9945 42.0587 75.0585 42.528C75.1438 42.9973 75.1438 43.4667 75.0585 43.936C74.9945 44.4053 74.8345 44.8 74.5785 45.12C74.3438 45.44 74.0238 45.6 73.6185 45.6C73.8532 45.9413 73.9172 46.272 73.8105 46.592C73.7252 46.8907 73.5438 47.136 73.2665 47.328C72.9892 47.52 72.6905 47.6053 72.3705 47.584C72.0505 47.5627 71.7732 47.3813 71.5385 47.04C71.5385 47.4667 71.3892 47.7973 71.0905 48.032C70.8132 48.288 70.4505 48.4587 70.0025 48.544C69.5758 48.6293 69.1492 48.6187 68.7225 48.512C68.2958 48.4267 67.9438 48.2453 67.6665 47.968C67.3892 47.6907 67.2612 47.328 67.2825 46.88ZM84.0238 45.856C83.4478 45.856 83.0104 45.7067 82.7118 45.408C82.4131 45.1093 82.2638 44.768 82.2638 44.384C82.2638 44 82.4131 43.6587 82.7118 43.36C83.0104 43.0613 83.4478 42.912 84.0238 42.912C83.4264 42.912 82.9784 42.7733 82.6798 42.496C82.3811 42.1973 82.2318 41.8667 82.2318 41.504C82.2318 41.1413 82.3811 40.8213 82.6798 40.544C82.9784 40.2453 83.4264 40.096 84.0238 40.096C83.5331 40.096 83.1598 39.936 82.9038 39.616C82.6691 39.2747 82.5518 38.88 82.5518 38.432C82.5518 37.984 82.6691 37.6 82.9038 37.28C83.1598 36.9387 83.5331 36.768 84.0238 36.768C83.2344 36.768 82.7011 36.64 82.4238 36.384C82.1464 36.128 82.1358 35.872 82.3918 35.616C82.6478 35.36 83.1598 35.232 83.9278 35.232C83.4371 35.2533 83.0424 35.1147 82.7438 34.816C82.4664 34.5173 82.2851 34.1547 82.1998 33.728C82.1358 33.3013 82.1784 32.9067 82.3278 32.544C82.2638 32.2453 82.2318 31.904 82.2318 31.52C82.2318 31.9893 82.0824 32.3627 81.7838 32.64C81.4851 32.9173 81.1118 33.0987 80.6638 33.184C80.2371 33.2693 79.7998 33.2693 79.3518 33.184C78.9251 33.0773 78.5624 32.8853 78.2638 32.608C77.9864 32.3307 77.8478 31.9573 77.8478 31.488C77.2931 31.488 76.8771 31.3813 76.5998 31.168C76.3224 30.9333 76.1837 30.6667 76.1837 30.368C76.1837 30.0693 76.3224 29.8027 76.5998 29.568C76.8771 29.3333 77.2931 29.216 77.8478 29.216C77.1864 29.216 76.7384 29.056 76.5038 28.736C76.2904 28.3947 76.2904 28.064 76.5038 27.744C76.7384 27.4027 77.1864 27.232 77.8478 27.232C76.7384 26.7413 76.2371 26.3893 76.3438 26.176C76.4291 25.9413 77.0264 26.0693 78.1358 26.56C78.1358 25.856 78.2531 25.3973 78.4878 25.184C78.7224 24.9493 78.9571 24.9493 79.1918 25.184C79.4264 25.3973 79.5438 25.856 79.5438 26.56C79.5438 25.9627 79.6611 25.5147 79.8958 25.216C80.1518 24.9173 80.4398 24.768 80.7598 24.768C81.0798 24.768 81.3571 24.9173 81.5918 25.216C81.8478 25.5147 81.9758 25.9627 81.9758 26.56C81.9758 26.0693 82.0824 25.7067 82.2958 25.472C82.5304 25.216 82.7971 25.088 83.0958 25.088C83.4158 25.088 83.6824 25.216 83.8958 25.472C84.1304 25.7067 84.2478 26.0693 84.2478 26.56C84.2478 25.792 84.4184 25.2907 84.7598 25.056C85.1011 24.8 85.4424 24.8 85.7838 25.056C86.1251 25.2907 86.2958 25.792 86.2958 26.56C86.2958 26.0267 86.4558 25.632 86.7758 25.376C87.1171 25.0987 87.5011 24.96 87.9278 24.96C88.3758 24.96 88.7704 25.0987 89.1118 25.376C89.4531 25.632 89.6238 26.0267 89.6238 26.56C89.6238 25.9413 89.8158 25.4827 90.1998 25.184C90.5838 24.864 91.0211 24.704 91.5118 24.704C92.0238 24.704 92.4718 24.864 92.8558 25.184C93.2398 25.4827 93.4318 25.9413 93.4318 26.56C93.4318 26.0053 93.5704 25.5893 93.8478 25.312C94.1464 25.0133 94.4771 24.864 94.8398 24.864C95.2238 24.864 95.5544 25.0133 95.8318 25.312C96.1091 25.5893 96.2478 26.0053 96.2478 26.56C96.8451 26.5173 97.2931 26.592 97.5918 26.784C97.9118 26.976 98.0824 27.2213 98.1038 27.52C98.1251 27.7973 97.9971 28.064 97.7198 28.32C97.4424 28.5547 97.0051 28.6933 96.4078 28.736C97.0478 28.736 97.4744 28.8853 97.6878 29.184C97.9011 29.4613 97.9011 29.7493 97.6878 30.048C97.4744 30.3467 97.0478 30.496 96.4078 30.496C96.6211 30.9013 96.6851 31.264 96.5998 31.584C96.5144 31.904 96.3438 32.128 96.0878 32.256C95.8318 32.384 95.5438 32.4053 95.2238 32.32C94.9251 32.2133 94.6691 31.9467 94.4558 31.52C94.4558 32.16 94.2744 32.608 93.9118 32.864C93.5704 33.12 93.2078 33.1947 92.8238 33.088C92.8024 33.4507 92.6744 33.7813 92.4398 34.08C92.2264 34.3787 91.9491 34.5707 91.6078 34.656C92.1198 34.8693 92.2584 35.1253 92.0238 35.424C91.7891 35.7227 91.1918 35.872 90.2318 35.872C90.7864 35.872 91.1918 36.0533 91.4478 36.416C91.7251 36.7787 91.8638 37.1947 91.8638 37.664C91.8638 38.1333 91.7251 38.5493 91.4478 38.912C91.1918 39.2747 90.7864 39.456 90.2318 39.456C91.0424 39.456 91.5758 39.584 91.8318 39.84C92.1091 40.096 92.1091 40.352 91.8318 40.608C91.5758 40.864 91.0424 40.992 90.2318 40.992C90.7438 40.992 91.1171 41.1093 91.3518 41.344C91.6078 41.5573 91.7358 41.8027 91.7358 42.08C91.7358 42.3573 91.6078 42.6133 91.3518 42.848C91.1171 43.0613 90.7438 43.168 90.2318 43.168C90.9998 43.168 91.5118 43.3173 91.7678 43.616C92.0238 43.9147 92.0238 44.2133 91.7678 44.512C91.5118 44.8107 90.9998 44.96 90.2318 44.96C90.9998 44.96 91.5011 45.0667 91.7358 45.28C91.9918 45.4933 91.9918 45.7067 91.7358 45.92C91.5011 46.1333 90.9998 46.24 90.2318 46.24C90.3384 46.7093 90.2531 47.104 89.9758 47.424C89.7198 47.744 89.3784 47.9573 88.9518 48.064C88.5251 48.1707 88.1198 48.1493 87.7358 48C87.3518 47.8293 87.1064 47.5093 86.9998 47.04C86.9998 47.6373 86.8398 48.0853 86.5198 48.384C86.2211 48.6827 85.8691 48.7893 85.4638 48.704C85.0798 48.64 84.7384 48.3733 84.4398 47.904C84.1411 47.4347 84.0024 46.752 84.0238 45.856Z" fill="white"/>
<path d="M100.626 43.168C99.8583 43.168 99.3463 43.0613 99.0903 42.848C98.8343 42.6347 98.8343 42.432 99.0903 42.24C99.3463 42.0267 99.8583 41.92 100.626 41.92C100.029 41.92 99.5809 41.7813 99.2823 41.504C98.9836 41.2267 98.8343 40.9173 98.8343 40.576C98.8343 40.2133 98.9836 39.904 99.2823 39.648C99.5809 39.3707 100.029 39.232 100.626 39.232C100.05 39.232 99.6236 39.1147 99.3463 38.88C99.0689 38.6453 98.9303 38.3787 98.9303 38.08C98.9303 37.7813 99.0689 37.5147 99.3463 37.28C99.6236 37.0453 100.05 36.928 100.626 36.928C100.114 36.928 99.7196 36.768 99.4423 36.448C99.1863 36.128 99.0583 35.7547 99.0583 35.328C99.0583 34.9013 99.1863 34.528 99.4423 34.208C99.7196 33.888 100.114 33.728 100.626 33.728C99.8796 33.728 99.3783 33.5787 99.1223 33.28C98.8663 32.9813 98.8663 32.6827 99.1223 32.384C99.3783 32.0853 99.8796 31.936 100.626 31.936C99.9863 31.936 99.5063 31.808 99.1863 31.552C98.8876 31.2747 98.7383 30.9653 98.7383 30.624C98.7383 30.2613 98.8876 29.952 99.1863 29.696C99.5063 29.4187 99.9863 29.28 100.626 29.28C100.264 29.1093 100.05 28.8533 99.9863 28.512C99.9223 28.1493 99.9649 27.7973 100.114 27.456C100.285 27.0933 100.52 26.816 100.818 26.624C101.117 26.432 101.448 26.4107 101.81 26.56C101.81 26.048 101.97 25.6747 102.29 25.44C102.61 25.184 102.984 25.056 103.41 25.056C103.837 25.056 104.21 25.184 104.53 25.44C104.85 25.6747 105.01 26.048 105.01 26.56C105.245 26.24 105.512 26.0693 105.81 26.048C106.109 26.0053 106.376 26.0693 106.61 26.24C106.845 26.4107 106.994 26.6453 107.058 26.944C107.144 27.2427 107.069 27.552 106.834 27.872C107.389 27.872 107.805 28.064 108.082 28.448C108.381 28.8107 108.53 29.2373 108.53 29.728C108.53 30.1973 108.381 30.624 108.082 31.008C107.805 31.3707 107.389 31.552 106.834 31.552C107.368 31.552 107.762 31.7333 108.018 32.096C108.296 32.4587 108.434 32.8747 108.434 33.344C108.434 33.8133 108.296 34.2293 108.018 34.592C107.762 34.9547 107.368 35.136 106.834 35.136C107.56 35.136 108.04 35.2427 108.274 35.456C108.509 35.6693 108.509 35.8827 108.274 36.096C108.04 36.3093 107.56 36.416 106.834 36.416C107.56 36.416 108.061 36.5547 108.338 36.832C108.616 37.1093 108.658 37.408 108.466 37.728C108.296 38.0267 107.901 38.2187 107.282 38.304C107.858 38.3253 108.296 38.592 108.594 39.104C108.914 39.616 109.053 40.1387 109.01 40.672C109.437 40.5653 109.874 40.5547 110.322 40.64C110.77 40.7253 111.144 40.9173 111.442 41.216C111.762 41.5147 111.922 41.9093 111.922 42.4C111.922 41.9307 112.072 41.5573 112.37 41.28C112.69 41.0027 113.064 40.8213 113.49 40.736C113.938 40.6507 114.386 40.6507 114.834 40.736C115.282 40.8213 115.656 41.0027 115.954 41.28C116.253 41.5573 116.402 41.9307 116.402 42.4C116.957 42.3573 117.384 42.4427 117.682 42.656C117.981 42.8693 118.141 43.136 118.162 43.456C118.184 43.7547 118.056 44.032 117.778 44.288C117.522 44.544 117.117 44.6827 116.562 44.704C116.904 45.024 117.053 45.376 117.01 45.76C116.989 46.144 116.84 46.496 116.562 46.816C116.285 47.1147 115.954 47.3067 115.57 47.392C115.186 47.456 114.824 47.3387 114.482 47.04C114.482 47.552 114.301 47.9253 113.938 48.16C113.576 48.416 113.16 48.544 112.69 48.544C112.221 48.544 111.805 48.416 111.442 48.16C111.08 47.9253 110.898 47.552 110.898 47.04C110.898 47.5733 110.696 47.9787 110.29 48.256C109.906 48.5333 109.448 48.672 108.914 48.672C108.381 48.672 107.912 48.5333 107.506 48.256C107.122 47.9787 106.93 47.5733 106.93 47.04C106.93 47.5733 106.738 47.9787 106.354 48.256C105.97 48.5333 105.522 48.672 105.01 48.672C104.498 48.672 104.05 48.5333 103.666 48.256C103.282 47.9787 103.09 47.5733 103.09 47.04C103.09 47.68 102.962 48.128 102.706 48.384C102.45 48.6613 102.152 48.6827 101.81 48.448C101.49 48.2133 101.202 47.68 100.946 46.848C100.712 45.9947 100.605 44.768 100.626 43.168ZM120.658 43.936C120.146 43.936 119.751 43.7653 119.474 43.424C119.218 43.0613 119.09 42.6453 119.09 42.176C119.09 41.6853 119.218 41.2693 119.474 40.928C119.751 40.5653 120.146 40.384 120.658 40.384C120.146 40.384 119.762 40.2453 119.506 39.968C119.271 39.6907 119.154 39.3813 119.154 39.04C119.154 38.6773 119.271 38.368 119.506 38.112C119.762 37.8347 120.146 37.696 120.658 37.696C119.868 37.696 119.335 37.536 119.058 37.216C118.802 36.896 118.802 36.576 119.058 36.256C119.335 35.936 119.868 35.776 120.658 35.776C120.124 35.776 119.719 35.648 119.442 35.392C119.164 35.136 119.026 34.8373 119.026 34.496C119.026 34.1547 119.164 33.856 119.442 33.6C119.719 33.344 120.124 33.216 120.658 33.216C120.06 33.216 119.612 33.024 119.314 32.64C119.036 32.256 118.898 31.8187 118.898 31.328C118.898 30.816 119.036 30.368 119.314 29.984C119.612 29.6 120.06 29.408 120.658 29.408C120.252 29.28 119.996 29.0453 119.89 28.704C119.804 28.3413 119.815 27.9787 119.922 27.616C120.05 27.232 120.252 26.9333 120.53 26.72C120.828 26.4853 121.18 26.432 121.586 26.56C121.586 25.8987 121.703 25.4613 121.938 25.248C122.172 25.0347 122.407 25.0347 122.641 25.248C122.876 25.4613 122.994 25.8987 122.994 26.56C122.994 26.176 123.154 25.8667 123.474 25.632C123.794 25.3973 124.188 25.248 124.658 25.184C125.148 25.0987 125.628 25.0987 126.098 25.184C126.588 25.248 126.994 25.3973 127.314 25.632C127.655 25.8667 127.826 26.176 127.826 26.56C127.826 25.8773 127.986 25.4293 128.306 25.216C128.647 24.9813 128.988 24.9813 129.33 25.216C129.671 25.4293 129.842 25.8773 129.842 26.56C129.842 25.984 129.98 25.5573 130.258 25.28C130.535 25.0027 130.844 24.864 131.186 24.864C131.548 24.864 131.858 25.0027 132.114 25.28C132.391 25.5573 132.53 25.984 132.53 26.56C132.53 26.176 132.679 25.8667 132.978 25.632C133.276 25.3973 133.639 25.248 134.066 25.184C134.514 25.0987 134.962 25.0987 135.41 25.184C135.858 25.248 136.231 25.3973 136.53 25.632C136.828 25.8667 136.978 26.176 136.978 26.56C137.618 26.624 138.034 26.7627 138.226 26.976C138.439 27.168 138.428 27.36 138.194 27.552C137.959 27.7227 137.522 27.776 136.882 27.712C137.436 27.776 137.842 27.9787 138.098 28.32C138.354 28.6613 138.46 29.0453 138.418 29.472C138.375 29.8773 138.194 30.2293 137.874 30.528C137.575 30.8053 137.148 30.9227 136.594 30.88C136.594 31.5627 136.476 32.0213 136.242 32.256C136.007 32.4693 135.772 32.4693 135.538 32.256C135.303 32.0213 135.186 31.5627 135.186 30.88C135.186 31.52 135.015 31.9573 134.674 32.192C134.354 32.4053 134.023 32.4053 133.682 32.192C133.34 31.9573 133.17 31.52 133.17 30.88C133.17 31.2 133.01 31.456 132.69 31.648C132.37 31.84 131.975 31.9573 131.506 32C131.058 32.0427 130.61 32.032 130.162 31.968C129.714 31.8827 129.372 31.7227 129.138 31.488C129.18 31.744 129.159 31.9893 129.074 32.224C128.988 32.4587 128.85 32.6613 128.658 32.832C128.914 33.0027 129.116 33.216 129.266 33.472C129.436 33.7067 129.532 33.9627 129.554 34.24C129.724 33.984 129.98 33.8133 130.322 33.728C130.663 33.6213 131.015 33.5893 131.378 33.632C131.74 33.6747 132.05 33.8027 132.306 34.016C132.562 34.208 132.69 34.4747 132.69 34.816C132.69 34.3467 132.807 33.9947 133.042 33.76C133.298 33.5253 133.586 33.408 133.906 33.408C134.226 33.408 134.503 33.5253 134.738 33.76C134.994 33.9947 135.122 34.3467 135.122 34.816C135.378 34.1547 135.634 33.7493 135.89 33.6C136.146 33.4507 136.316 33.5253 136.402 33.824C136.508 34.1013 136.434 34.5707 136.178 35.232C136.775 35.2747 137.202 35.488 137.458 35.872C137.735 36.256 137.852 36.6827 137.81 37.152C137.767 37.6213 137.586 38.0267 137.266 38.368C136.946 38.688 136.487 38.8267 135.89 38.784C135.89 39.104 135.73 39.36 135.41 39.552C135.111 39.744 134.727 39.872 134.258 39.936C133.81 40 133.351 40 132.882 39.936C132.434 39.872 132.05 39.744 131.73 39.552C131.431 39.36 131.282 39.104 131.282 38.784C131.282 39.2107 131.122 39.52 130.802 39.712C130.482 39.904 130.13 39.9787 129.746 39.936C129.383 39.8933 129.106 39.7227 128.914 39.424C128.892 39.68 128.807 39.904 128.658 40.096C128.53 40.288 128.37 40.4373 128.178 40.544C128.412 40.7573 128.519 41.0133 128.498 41.312C128.754 41.376 128.978 41.5253 129.17 41.76C129.362 41.9947 129.458 42.3147 129.458 42.72C129.458 42.336 129.66 42.048 130.066 41.856C130.492 41.6427 130.972 41.536 131.506 41.536C132.039 41.536 132.508 41.6427 132.914 41.856C133.34 42.048 133.554 42.336 133.554 42.72C133.554 42.0587 133.714 41.6213 134.034 41.408C134.354 41.1947 134.663 41.1947 134.962 41.408C135.282 41.6213 135.442 42.0587 135.442 42.72C135.74 42.2933 136.082 42.1013 136.466 42.144C136.85 42.1867 137.127 42.3787 137.298 42.72C137.49 43.0613 137.436 43.4453 137.138 43.872C137.586 44.0427 137.863 44.3307 137.97 44.736C138.076 45.1413 138.055 45.5573 137.906 45.984C137.756 46.3893 137.5 46.7093 137.138 46.944C136.796 47.1787 136.402 47.2107 135.954 47.04C135.954 47.616 135.826 48.0427 135.569 48.32C135.335 48.6187 135.058 48.768 134.738 48.768C134.418 48.768 134.14 48.6187 133.906 48.32C133.671 48.0427 133.554 47.616 133.554 47.04C133.554 47.6373 133.372 48.0747 133.01 48.352C132.668 48.6507 132.274 48.8 131.826 48.8C131.378 48.8 130.972 48.6507 130.61 48.352C130.268 48.0747 130.098 47.6373 130.098 47.04C130.098 47.5733 129.959 47.968 129.682 48.224C129.404 48.5013 129.074 48.64 128.69 48.64C128.327 48.64 128.007 48.5013 127.73 48.224C127.452 47.968 127.314 47.5733 127.314 47.04C127.314 47.6587 127.132 48.1173 126.77 48.416C126.428 48.736 126.034 48.896 125.586 48.896C125.138 48.896 124.732 48.736 124.37 48.416C124.028 48.1173 123.858 47.6587 123.858 47.04C123.858 47.5733 123.687 47.9467 123.346 48.16C123.026 48.3947 122.652 48.416 122.226 48.224C121.799 48.0533 121.426 47.6267 121.106 46.944C120.786 46.24 120.636 45.2373 120.658 43.936Z" fill="#FAF0D7"/>
</svg>
