<svg width="69" height="66" viewBox="0 0 69 66" fill="none" xmlns="http://www.w3.org/2000/svg">
<g clip-path="url(#clip0_81_17)">
<path d="M56.6833 34.1111C58.5374 32.02 60.2591 29.7982 61.9808 27.7071C64.3647 24.8319 68.3378 21.3032 69 17.6438C69 17.5131 69 17.5131 68.8676 17.5131L68.7351 17.3824C60.524 18.2972 51.6507 17.5131 43.572 19.9962C43.572 19.9962 43.4395 19.8655 43.3071 19.9962C42.9098 14.8992 41.7178 9.93286 40.9232 4.83583C40.1286 0.261577 39.9962 -0.914661 35.2284 0.653656L35.096 0.784349C34.3013 1.6992 27.547 15.9447 25.2956 22.7408C16.952 24.3091 8.47601 26.1388 0.397313 28.622C0.132438 28.7527 0 29.014 0.132438 29.1447C0.132438 29.2754 0.132438 29.5368 0 29.6675C0 29.7982 0 29.9289 0.132438 29.9289C6.22457 33.4576 13.3762 36.8556 20.263 39.7309C20.1305 40.2537 19.9981 40.7764 19.8656 41.2992C18.8061 45.0893 17.8791 48.8794 16.952 52.8002C16.5547 54.8913 16.025 56.8517 15.4952 58.9428C15.2303 60.2497 14.9655 61.5566 14.7006 62.8636C14.5681 63.7784 13.906 66.915 15.6276 65.7388C18.8061 65.6081 22.1171 63.517 24.2361 61.2952C28.2092 57.3744 31.9175 53.323 35.8906 49.4022C42.6449 52.5388 49.7965 55.4141 56.8157 58.1586H56.9482C57.4779 58.1586 57.7428 57.6358 58.1401 57.3744C58.5374 56.9824 59.1996 56.5903 59.5969 56.1982C59.9942 55.6754 61.1862 55.022 60.6564 54.3685C59.5969 51.4933 58.5374 48.618 57.4779 45.7428C56.9482 44.3051 56.4184 42.7368 55.8887 41.2992C55.6238 40.515 54.9616 37.5091 54.0345 36.5942C55.2265 35.9408 55.8887 34.8952 56.6833 34.1111ZM43.4395 20.519L43.572 20.3883C49.3992 20.2576 55.3589 18.82 61.1862 18.5586C62.9079 18.4279 66.7486 18.5586 67.8081 18.0358C66.3512 18.82 65.0269 19.7348 63.7025 20.6497C63.1727 20.6497 62.5106 20.519 61.9808 20.519C61.7159 20.519 61.3186 20.519 61.0537 20.519C59.5969 20.519 58.2726 20.6497 56.8157 20.6497C53.2399 20.9111 49.5317 21.5645 46.0883 21.9566C44.6315 22.0873 43.3071 22.218 41.8503 22.3487C41.8503 22.3487 41.1881 22.4794 40.9232 22.4794C41.8503 21.8259 42.6449 21.1725 43.4395 20.519ZM35.8906 0.784349C38.4069 0.522963 39.0691 0.39227 39.7313 2.74475C40.3935 4.96653 40.6584 7.18831 41.1881 9.41009C41.9827 12.9388 42.5125 16.5982 43.0422 20.2576V20.3883C42.2476 21.0418 41.5854 21.6952 40.7908 22.3487C40.7908 22.218 40.7908 22.0873 40.6584 21.9566C40.6584 21.8259 40.6584 21.8259 40.5259 21.6952C40.5259 21.5645 40.5259 21.5645 40.5259 21.4339C39.7313 18.0358 39.2015 14.6378 38.5393 11.3705C38.0096 9.01801 36.6852 1.17643 35.7582 1.04574C35.6257 0.784349 35.7582 0.784349 35.8906 0.784349ZM27.0173 58.0279C25.0307 59.9883 23.0441 62.4715 20.5278 63.6477C19.6008 64.0398 18.2764 64.3012 17.0845 64.6933C17.3493 64.4319 17.6142 64.0398 18.0115 63.7784C19.6008 62.2101 21.19 60.5111 22.7793 58.9428C23.7063 58.0279 24.501 57.1131 25.428 56.1982C28.2092 53.4537 31.1228 51.1012 34.0365 48.4873C34.6987 48.7487 35.2284 49.0101 35.8906 49.4022C32.8445 52.1467 29.9309 55.1527 27.0173 58.0279ZM33.5067 47.7032C32.3148 48.618 31.1228 49.6636 29.9309 50.5784C27.547 52.8002 25.1631 55.022 22.9117 57.3744C21.3225 59.0735 17.3493 63.517 16.8196 63.7784C16.6871 63.9091 15.0979 64.9546 15.3628 64.3012C15.2303 64.1705 17.4818 55.5447 18.4088 51.3626C18.6737 50.0556 18.8061 48.8794 19.071 47.7032C19.2035 47.3111 19.2035 47.0497 19.3359 46.6576C19.7332 44.1744 20.263 41.6913 20.9251 39.3388C20.9251 39.0774 21.0576 38.816 21.0576 38.5546C20.9251 38.424 20.7927 38.424 20.5278 38.2933C14.4357 35.6794 8.21113 33.1962 2.38388 30.1903C1.32438 29.6675 2.119 29.1447 3.1785 28.7527C7.54894 27.315 12.1843 26.1388 16.6871 25.3546C19.4683 24.5705 25.6929 23.2636 25.6929 23.2636C25.6929 23.2636 30.5931 10.1943 32.5797 6.40415C32.8445 5.88138 33.7716 3.79029 34.0365 3.13682C35.096 1.30712 35.7582 1.6992 35.8906 2.48336C36.9501 9.41009 38.9367 16.0754 40.1286 22.8715C40.261 22.8715 40.7908 22.7408 40.7908 22.7408C43.1747 22.4794 45.691 22.218 48.2073 22.218C52.7102 21.8259 57.0806 21.4339 61.5835 21.3032C61.9808 21.3032 62.2457 21.3032 62.3781 21.4339C62.3781 21.5645 62.5106 21.5645 62.5106 21.5645C62.643 21.6952 62.643 21.8259 62.5106 21.9566C61.1862 23.6556 53.5048 31.3665 51.1209 33.719C50.1939 34.8952 49.2668 35.9408 48.3397 36.9863C49.0019 38.6853 54.9616 53.0616 55.7562 54.7606V54.8913C58.9347 59.5962 34.4338 47.9645 33.5067 47.7032ZM56.8157 45.0893C57.8752 48.0952 59.0672 51.2319 60.3916 53.9764C60.3916 54.1071 60.2591 54.1071 60.2591 54.2378C60.2591 54.7606 60.3916 54.8913 59.8618 55.2834C59.5969 55.4141 59.4645 55.8061 59.1996 55.9368C58.5374 56.4596 58.0077 56.9824 57.4779 57.5051C57.4779 57.2438 57.4779 56.9824 57.3455 56.721C56.286 53.323 54.5643 50.0556 53.2399 46.7883C51.9156 43.6517 50.5912 40.515 49.1344 37.3784C49.7965 37.3784 50.4587 37.2477 51.1209 37.117C52.048 36.9863 52.9751 36.8556 53.9021 36.7249C54.4319 39.6002 55.8887 42.2141 56.8157 45.0893ZM54.4319 35.6794C53.6372 35.9408 52.7102 36.2022 51.9156 36.3329C51.7831 36.3329 51.5182 36.4636 51.3858 36.4636C50.856 36.5942 50.1939 36.7249 49.6641 36.8556C54.4319 31.8893 59.4645 26.923 63.8349 21.6952L63.9674 21.5645C64.0998 21.3032 64.2322 20.9111 64.2322 20.7804C65.6891 19.8655 67.1459 18.82 68.6027 18.0358C68.2054 19.9962 57.4779 32.8041 54.4319 35.6794Z" fill="#F7BB9F"/>
</g>
<defs>
<clipPath id="clip0_81_17">
<rect width="69" height="66" fill="white"/>
</clipPath>
</defs>
</svg>
