<svg width="64" height="59" viewBox="0 0 64 59" fill="none" xmlns="http://www.w3.org/2000/svg">
<g clip-path="url(#clip0_81_15)">
<path d="M62.363 16.4424C54.5581 17.7189 46.6113 18.6408 38.6645 19.4917C36.7488 13.0386 34.5492 6.72729 32.0658 0.557819C31.4982 -0.789537 29.6534 0.628733 29.3696 1.40878C27.17 8.00373 24.8995 14.5987 22.7 21.1936C15.8884 22.0446 9.00596 23.0374 2.33634 24.3847C0.633453 24.7393 -1.06943 27.3631 0.846313 28.4977C6.16782 31.6888 11.9151 34.3835 17.5913 37.1492C15.1789 43.8859 13.9727 47.6444 11.986 57.4304C11.7731 58.3523 13.547 59.3451 14.1146 58.8487C19.5071 54.2393 25.4672 48.779 30.7177 44.0987C35.5425 47.077 40.2255 50.4809 45.1213 53.1756C45.6889 53.1756 47.037 53.672 47.037 51.8283C47.037 50.9064 43.9151 39.2057 42.7088 34.3126C49.3785 29.4905 56.4029 25.0939 62.7887 19.9881C64.1368 19.0662 64.8463 16.017 62.363 16.4424ZM30.6468 5.80542C32.3496 10.4148 33.9816 15.0951 35.4716 19.8463C32.1368 20.2008 28.731 20.5554 25.3962 20.9809C27.0991 15.8751 28.8729 10.8403 30.6468 5.80542ZM8.58024 27.434C12.8374 26.7249 17.0947 26.1576 21.3519 25.5903C20.7842 27.434 20.1457 29.2778 19.578 31.1924C19.4361 31.6888 19.2233 32.2561 19.0813 32.8234C15.5337 31.0506 11.986 29.2778 8.58024 27.434ZM17.3785 53.3174C11.0636 59.9833 19.4361 40.1984 19.9328 38.4256C21.9195 39.4184 23.9062 40.4112 25.8929 41.404C26.6024 41.7585 27.3119 42.184 28.0215 42.6095C24.7576 45.446 20.5004 50.0554 17.3785 53.3174ZM28.3053 37.5037C26.0348 36.2273 23.6224 35.0927 21.2809 33.8871C21.8485 32.0434 22.4162 30.1996 22.9838 28.3559C23.2676 27.3631 23.6224 26.2994 23.9771 25.3066C28.2343 24.8102 32.4916 24.3138 36.7488 23.8174C37.7421 26.9376 38.6645 30.1287 39.5869 33.3198C36.8907 35.3054 34.3363 37.4328 31.7111 39.4893C30.6468 38.7802 29.4406 38.142 28.3053 37.5037ZM43.7731 47.4316C40.5802 45.3042 37.4583 43.1059 34.2654 41.0494C35.6135 39.9148 36.9616 38.7802 38.3097 37.6456C39.0193 37.0783 39.7288 36.5819 40.4383 36.0855C41.5736 39.8439 42.6379 43.6732 43.7731 47.4316ZM42.0703 31.4761C41.3607 28.7814 40.6512 26.0867 39.8707 23.4629C45.0503 22.8956 50.3009 22.2573 55.4805 21.4773C51.0104 24.8811 46.4694 28.1432 42.0703 31.4761Z" fill="#F7BB9F"/>
</g>
<defs>
<clipPath id="clip0_81_15">
<rect width="64" height="59" fill="white"/>
</clipPath>
</defs>
</svg>
